<?xml version="1.0" encoding="utf-8"?>
<!-- Generator: Adobe Illustrator 27.5.0, SVG Export Plug-In . SVG Version: 6.00 Build 0)  -->
<svg version="1.1" id="_图层_2" xmlns="http://www.w3.org/2000/svg" xmlns:xlink="http://www.w3.org/1999/xlink" x="0px" y="0px"
	 viewBox="0 0 211.1 211.1" style="enable-background:new 0 0 211.1 211.1;" xml:space="preserve">
<style type="text/css">
	.st0{fill:#FFFFFF;}
</style>
<g id="_图层_1-2">
	<g id="_纵向">
		<g>
			<path class="st0" d="M81.3,76.3c5.5,1,11,1.7,16.5,2c0.7,1.4,0.9,2.9,0.9,4.4v8.2L81.3,76.3z M82.4,58.1
				c-1.7,3.3-3.1,6.8-4.3,10.3l4.5,3.7l-2.6,3c5.7,1.1,11.5,1.8,17.3,2.2c-0.6-0.9-1.6-1.7-2.8-2.2L86.3,73
				c-1.3-0.5-2.2-1.8-2.2-3.2v-7.7c0-1.8,0.7-3.5,2-4.8c1.3-1.3,3.1-2,4.9-2h14.1v-2.1c-5.9,0-11.8-1.2-17.4-3.5
				C85.7,52.3,83.9,55.1,82.4,58.1L82.4,58.1z M129.8,76.3c-5.5,1-11,1.7-16.6,2c-0.7,1.4-0.7,2.9-0.7,4.4v8.1L129.8,76.3
				L129.8,76.3z M88.4,49c5.3,2.1,11,3.2,16.8,3.3V38.8c-3.8,0.1-7.5,1.5-10.5,3.9C92.4,44.6,90.3,46.7,88.4,49z M75.2,132l13.9-2.8
				c5.5-1.4,8.4-4.8,9.7-10.5v-4.9L81,128.8l-5.7-6.8l19.1-16H72.6C72.6,114.8,73.5,123.5,75.2,132L75.2,132z M116.7,106l19,16
				l-5.7,6.8L112.5,114v4.8c0.9,5.6,4.1,9,9.7,10.5L136,132c1.7-8.6,2.6-17.3,2.6-26L116.7,106L116.7,106z M95.4,105.2l3.3-2.8
				l-24-20.1c-1.3,7.6-2.1,15.2-2.1,22.9H95.4L95.4,105.2z M94.7,168.5c3,2.5,6.7,3.8,10.5,3.9v-13.5c-5.8,0.1-11.4,1.2-16.8,3.3
				C90.3,164.5,92.4,166.6,94.7,168.5L94.7,168.5z M121.7,145c-0.4,0-0.8,0.2-1,0.5c-0.3,0.3-0.4,0.8-0.4,1.4s0.1,1.1,0.4,1.4
				c0.3,0.3,0.6,0.5,1.1,0.5s0.8-0.2,1.1-0.5c0.3-0.3,0.4-0.8,0.4-1.4s-0.2-1.1-0.5-1.4C122.5,145.2,122.1,145,121.7,145L121.7,145z
				 M110,145.1c-0.5,0-0.9,0.3-1.1,0.8c-0.2,0.5-0.3,1.5-0.3,2.9s0.1,2.4,0.4,3c0.2,0.5,0.6,0.8,1.1,0.8c0.3,0,0.6-0.1,0.8-0.3
				c0.2-0.2,0.4-0.6,0.5-1.1c0.1-0.5,0.2-1.2,0.2-2.3c0-1.5-0.1-2.5-0.4-3C110.9,145.4,110.5,145.1,110,145.1L110,145.1z M148,78.9
				l-2.1,1.7l-1.3,8.1l-1.4,1.1l-5.8-7c1.3,7.4,1.9,14.8,2,22.3h33.9c-0.1-13.8-4.4-27.2-12.3-38.5c-5.8,2.6-11.7,4.7-17.8,6.5
				L148,78.9L148,78.9z M106,172.4c3.8-0.1,7.5-1.5,10.5-3.9c2.3-1.9,4.4-4,6.3-6.3c-5.3-2.1-11-3.2-16.8-3.3L106,172.4L106,172.4z
				 M123.4,161.5c-5.5-2.2-11.4-3.4-17.3-3.5v-2.4h-0.8v2.4c-5.9,0.1-11.8,1.2-17.4,3.5c-2.1-2.6-3.9-5.4-5.4-8.4
				c-2.2-4.3-3.9-8.8-5.3-13.4h28v2.5h0.8v-2.5h28c-1.4,4.6-3.1,9.1-5.3,13.4C127.3,156.1,125.4,158.9,123.4,161.5L123.4,161.5z
				 M90.2,143h-2.6c-0.3,0.7-0.8,1.3-1.4,1.8c-0.6,0.5-1.4,0.9-2.5,1.2v2.6c0.7-0.2,1.3-0.5,1.8-0.7c0.5-0.2,1-0.6,1.5-0.9v7.6h3.2
				V143L90.2,143z M102.8,148.8c0-1.4-0.2-2.5-0.6-3.4c-0.4-0.9-0.9-1.5-1.7-1.9c-0.7-0.4-1.6-0.6-2.7-0.6c-0.9,0-1.7,0.1-2.3,0.5
				c-0.6,0.3-1.1,0.8-1.5,1.4c-0.4,0.6-0.5,1.3-0.5,2.1c0,1.1,0.3,2,1,2.7c0.7,0.7,1.6,1.1,2.6,1.1c0.5,0,1-0.1,1.4-0.3
				c0.4-0.2,0.8-0.5,1.2-0.9c-0.1,1.2-0.2,2-0.5,2.4c-0.3,0.5-0.7,0.8-1.2,0.8c-0.3,0-0.5-0.1-0.7-0.3c-0.2-0.2-0.3-0.5-0.4-0.9
				l-3.1,0.4c0.2,0.6,0.4,1.1,0.8,1.5c0.3,0.4,0.8,0.7,1.3,0.9c0.5,0.2,1.2,0.3,2.1,0.3c1.5,0,2.7-0.5,3.6-1.4
				C102.4,152.4,102.8,150.9,102.8,148.8L102.8,148.8z M114.6,148.8c0-0.9-0.1-1.8-0.3-2.6c-0.1-0.4-0.2-0.8-0.4-1.2
				c-0.2-0.3-0.4-0.6-0.7-0.9c-0.3-0.3-0.7-0.6-1.2-0.7c-0.5-0.2-1.1-0.3-1.9-0.3c-1.6,0-2.8,0.4-3.5,1.3c-0.8,0.9-1.2,2.4-1.2,4.5
				c0,0.9,0.1,1.7,0.2,2.4c0.2,0.7,0.4,1.3,0.6,1.7c0.4,0.6,0.8,1,1.4,1.3c0.6,0.3,1.3,0.4,2.3,0.4c1.7,0,2.9-0.5,3.6-1.4
				C114.3,152.4,114.6,150.8,114.6,148.8L114.6,148.8z M121.7,154.7c1.5,0,2.7-0.5,3.6-1.4c0.9-0.9,1.3-2.4,1.3-4.5
				c0-1.4-0.2-2.5-0.6-3.4s-1-1.5-1.6-1.9c-0.7-0.4-1.6-0.6-2.7-0.6c-0.9,0-1.7,0.1-2.3,0.5c-0.6,0.3-1.1,0.8-1.5,1.4
				c-0.3,0.6-0.5,1.3-0.5,2.1c0,1.1,0.3,2,1.1,2.7c0.7,0.7,1.6,1.1,2.6,1.1c0.5,0,1-0.1,1.4-0.3c0.4-0.2,0.8-0.5,1.2-0.9
				c-0.1,1.2-0.3,2-0.5,2.4c-0.3,0.5-0.7,0.8-1.2,0.8c-0.3,0-0.5-0.1-0.7-0.3c-0.2-0.2-0.3-0.5-0.4-0.9l-3.1,0.4
				c0.2,0.6,0.4,1.1,0.8,1.5c0.3,0.4,0.8,0.7,1.3,0.9C120.1,154.6,120.8,154.7,121.7,154.7L121.7,154.7z M73.7,82.8l-5.9,7.1
				L59.6,83l8.3-9.9c-6-1.8-12-3.9-17.7-6.5c-7.9,11.3-12.2,24.7-12.3,38.5h33.9C71.8,97.6,72.4,90.2,73.7,82.8z M81.6,153.4
				c-2.2-4.4-4-9-5.4-13.8h-8.4v-0.8c-5.8,1.7-11.6,3.8-17.2,6.3c6.9,9.6,16.2,17.1,26.9,22c2.9-2.1,6.1-3.9,9.4-5.4
				C84.9,159.2,83.1,156.4,81.6,153.4L81.6,153.4z M87.5,162.5c-3.2,1.3-6.2,3.1-9.1,5.1c8.6,3.7,17.8,5.7,27.1,5.7
				c-4.2,0-8.2-1.4-11.5-4.1C91.7,167.1,89.5,164.9,87.5,162.5L87.5,162.5z M67.8,137.5c0-1.7,0-3.9,2.9-4.6l3.7-0.7
				c-1.7-8.6-2.6-17.4-2.7-26.2H37.9c0.1,13.8,4.4,27.2,12.3,38.5c5.7-2.6,11.6-4.7,17.6-6.5L67.8,137.5L67.8,137.5z M98,145
				c-0.4,0-0.8,0.2-1,0.5c-0.3,0.3-0.4,0.8-0.4,1.4s0.1,1.1,0.4,1.4c0.3,0.3,0.6,0.5,1.1,0.5s0.8-0.2,1.1-0.5
				c0.3-0.3,0.4-0.8,0.4-1.4s-0.2-1.1-0.5-1.4C98.8,145.2,98.4,145,98,145z M136.8,132.2l3.8,0.8c2.8,0.9,2.8,2.9,2.8,4.6v0.5
				c6,1.8,11.9,3.9,17.6,6.5c7.9-11.3,12.2-24.7,12.3-38.5h-33.9C139.4,114.8,138.5,123.5,136.8,132.2L136.8,132.2z M143.3,139.7
				h-8.4c-1.4,4.7-3.2,9.3-5.4,13.8c-1.5,3-3.3,5.8-5.3,8.4c3.3,1.4,6.5,3.2,9.4,5.4c10.7-4.9,20-12.4,26.9-22
				c-5.6-2.5-11.3-4.6-17.1-6.3L143.3,139.7L143.3,139.7z M117,169.1c-3.2,2.7-7.3,4.1-11.5,4.1c9.3,0,18.6-1.9,27.1-5.7
				c-2.8-2-5.9-3.7-9.1-5.1C121.6,164.9,119.4,167.2,117,169.1L117,169.1z M94.1,42c3.1-2.6,7-4,11-4.1v0c-9.2,0.1-18.3,2-26.7,5.7
				c2.8,2,5.9,3.8,9.1,5.1C89.5,46.2,91.7,44,94.1,42L94.1,42z M123.6,48.6c3.2-1.3,6.3-3.1,9.1-5.1c-8.4-3.7-17.5-5.6-26.7-5.7v0
				c4,0.1,7.9,1.5,11,4.1C119.4,44,121.6,46.2,123.6,48.6L123.6,48.6z M116.5,42.7c-3-2.5-6.7-3.8-10.5-3.9v13.5
				c5.8-0.1,11.4-1.2,16.8-3.3C120.9,46.7,118.8,44.6,116.5,42.7z M129.5,57.7c1.6,3.2,3,6.6,4.2,10l2.9-2.4l6,7.2
				c6.1-1.8,12.1-3.9,17.8-6.5c-6.9-9.5-16.1-17.1-26.9-22c-2.9,2.2-6.1,4-9.4,5.4C126.2,51.9,128,54.8,129.5,57.7L129.5,57.7z
				 M120.2,55.3c1.8,0,3.6,0.7,4.8,2c1.3,1.3,2,3,2,4.8v7.7c0,1.4-0.8,2.7-2.2,3.2l-8.2,2.1c-1.4,0.7-2.3,1.5-3,2.3
				c5.8-0.3,11.6-1.1,17.3-2.2l0,0l-2.6-3.1l4.6-3.8c-1.2-3.5-2.6-6.9-4.2-10.2c-1.5-3-3.3-5.8-5.4-8.4c-5.5,2.2-11.4,3.4-17.3,3.5
				v2.1C106,55.3,120.2,55.3,120.2,55.3z M136.5,82.2l-24,20.1v0.1l3.2,2.7h22.9C138.6,97.5,137.8,89.8,136.5,82.2L136.5,82.2z
				 M74.4,65.3l3,2.5c1.2-3.5,2.6-6.8,4.2-10.1c1.5-3,3.3-5.8,5.3-8.4c-3.3-1.4-6.5-3.2-9.4-5.4c-10.7,4.9-20,12.5-26.9,22
				c5.8,2.6,11.7,4.7,17.8,6.5L74.4,65.3L74.4,65.3z"/>
			<path class="st0" d="M105.6,32.8c40.2,0,72.8,32.6,72.8,72.8s-32.6,72.8-72.8,72.8s-72.8-32.6-72.8-72.8S65.4,32.8,105.6,32.8
				 M175.8,105.6c0-38.8-31.4-70.2-70.2-70.2s-70.2,31.4-70.2,70.2s31.4,70.2,70.2,70.2S175.8,144.4,175.8,105.6"/>
			<path class="st0" d="M105.6,0c58.3,0,105.6,47.3,105.6,105.6s-47.3,105.6-105.6,105.6S0,163.9,0,105.6S47.3,0,105.6,0
				 M207.8,105.6C207.8,49.1,162,3.3,105.6,3.3S3.3,49.1,3.3,105.6s45.8,102.3,102.3,102.3S207.9,162.1,207.8,105.6"/>
			<g>
				<path class="st0" d="M88.9,11.3c0,0,0,0.3,0,0.6L88.9,11.3z M88.7,12.3c0,0,0.1-0.1,0.2-0.4L88.7,12.3z M88.9,11.3
					c0,0-0.1-0.4-0.2-0.6L88.9,11.3z M88.7,12.3C88.7,12.3,88.7,12.4,88.7,12.3L88.7,12.3 M88.7,12.4c-0.2,0.1-0.2,0.2-0.2,0.4
					L88.7,12.4 M88.3,13.1c0.1-0.1,0.1-0.2,0.2-0.3L88.3,13.1z M88.7,10.8c-0.1-0.2-0.4-0.3-0.4-0.3L88.7,10.8z M88,13.3
					c0.1,0,0.2-0.1,0.3-0.2L88,13.3 M88,13.3C88,13.3,87.9,13.3,88,13.3L88,13.3 M87.9,13.3c-0.1,0-0.6,0.5-0.6,0.5L87.9,13.3
					 M88.3,10.4c0,0,0-0.1-0.5-0.2L88.3,10.4 M87.8,10.2c-0.6-0.2-1.6,0.5-2,1.1L87.8,10.2 M87.3,13.8c0,0-0.4,0.5-0.4,0.5
					L87.3,13.8 M87.2,22.3L87.2,22.3 M87.2,22.3c0,0-0.1,0.3-0.1,0.4L87.2,22.3 M87.2,22.1v0.3V22.1 M87.2,22.1c0-0.4-0.3-1-0.4-1.2
					L87.2,22.1z M87.1,24.2c0-0.2,0-0.5,0-0.7L87.1,24.2z M86.9,24.9c0,0,0.1-0.5,0.2-0.8L86.9,24.9 M87.1,23.4c0,0,0,0.1,0,0.1
					V23.4 M87,22.8c0,0,0,0.5,0,0.6L87,22.8 M87,18.7l0-0.1C87.1,18.6,87,18.7,87,18.7 M87,18.7c0,0.2-0.1,0.3-0.1,0.4L87,18.7
					 M87.1,18.6c0-0.2,0-0.6-0.1-0.8L87.1,18.6z M87,19.1c-0.1,0-0.1,0.8-0.1,0.9L87,19.1 M87,17.8c-0.1-0.2-0.1-0.2-0.3-0.4
					L87,17.8 M86.8,25.2L86.8,25.2L86.8,25.2 M86.8,25.3c0,0.1-0.1,0.5-0.2,0.7c-0.1,0.2-0.1,0.4-0.1,0.5L86.8,25.3 M86.8,14.3
					c-0.1,0.1-0.6,0.5-0.6,0.6L86.8,14.3 M86.8,20.6c0,0,0,0.1,0,0.2L86.8,20.6 M86.8,20.8C86.8,20.8,86.8,20.8,86.8,20.8L86.8,20.8
					 M86.7,9.6c0.1-0.2,0.1-0.5,0-0.9L86.7,9.6z M86.5,8.5c0.1,0.1,0.2,0.2,0.2,0.2L86.5,8.5z M86.4,10c0,0,0.2-0.1,0.3-0.4L86.4,10
					z M86.3,27.5c0.2-0.4,0.3-1,0.3-1L86.3,27.5z M86.1,28c0,0,0.1-0.1,0.2-0.5L86.1,28z M86.5,8.5c-0.1-0.1-0.2-0.2-0.3-0.3
					L86.5,8.5 M86.2,8.2C86,8.1,85.8,8,85.7,8L86.2,8.2 M86.3,14.9c-0.4,0.4-0.9,1-1,1.2L86.3,14.9 M85.9,28.7
					c0.1-0.1,0.2-0.6,0.2-0.7L85.9,28.7 M85.9,17c0,0,0.6,0.5,0.7,0.5L85.9,17z M85.9,16.9C85.9,16.9,85.9,17,85.9,16.9L85.9,16.9z
					 M85.9,16.9c0,0-0.1-0.1-0.2-0.1L85.9,16.9 M85.8,28.8c0-0.1,0.1-0.1,0.1-0.1L85.8,28.8 M85.8,28.9c-0.1,0.2-0.3,0.6-0.3,0.6
					L85.8,28.9 M85.7,16.8c-0.1,0-0.3,0-0.4,0L85.7,16.8 M85.6,11.5c0.1,0,0.2-0.2,0.2-0.2L85.6,11.5z M85.3,30.2
					c0.1-0.2,0.1-0.5,0.2-0.7L85.3,30.2 M85.1,12.1c0.3-0.1,0.4-0.4,0.5-0.6L85.1,12.1z M85.2,30.4c0-0.1,0.1-0.1,0.1-0.2L85.2,30.4
					 M85.2,16.8C85.2,16.8,85.3,16.8,85.2,16.8L85.2,16.8 M85.2,30.4c-0.1,0.1-0.1,0.2-0.1,0.2L85.2,30.4 M85,16.3
					c0,0,0.2-0.1,0.3-0.3L85,16.3z M85.2,23.5c0,0,0.1-0.7,0-1V23.5z M85.2,22.5l0-0.8L85.2,22.5z M85.8,8c0,0-0.4-0.2-0.6-0.2
					L85.8,8 M85.1,7.7c-0.2,0-1,0.1-1.2,0.3L85.1,7.7z M85.1,24.2c0,0,0.1-0.7,0.1-0.7L85.1,24.2z M84.8,12.3
					c0.1-0.1,0.2-0.3,0.2-0.3L84.8,12.3z M84.9,25.4c0,0,0.2-1.1,0.2-1.1L84.9,25.4z M85.1,21.2c0,0,0-0.4,0-0.5L85.1,21.2
					L85.1,21.2z M85,20.7c0,0-0.1-0.4-0.1-0.4L85,20.7z M85.1,30.6c-0.1,0.1-0.3,0.4-0.4,0.7L85.1,30.6 M85.2,16.7
					c-0.2,0.1-0.6,0.1-0.7,0.2L85.2,16.7 M84.9,26.4c0,0,0-0.2,0-0.4L84.9,26.4z M84.8,25.5c0,0,0-0.1,0-0.1L84.8,25.5z M84.8,26.8
					c0.1-0.3,0.1-0.4,0.1-0.5L84.8,26.8z M84.8,25.5c0,0.1,0,0.1,0,0.2L84.8,25.5 M84.8,25.8c0,0.1,0,0.1,0,0.2L84.8,25.8
					 M84.8,12.4c-0.1,0.1-0.2,0.2-0.2,0.3L84.8,12.4 M84.7,27L84.7,27C84.8,26.9,84.7,26.9,84.7,27 M84.7,27.1L84.7,27.1
					C84.7,27,84.7,27.1,84.7,27.1 M84.7,27.2l0-0.1C84.7,27.1,84.7,27.2,84.7,27.2 M84.5,31.7c0.1-0.1,0.1-0.2,0.2-0.4L84.5,31.7z
					 M84.7,27.3C84.7,27.3,84.7,27.3,84.7,27.3L84.7,27.3 M84.6,27.4L84.6,27.4C84.6,27.4,84.6,27.4,84.6,27.4 M84.6,19.4
					c0,0,0,0.1,0.1,0.1L84.6,19.4 M84.1,16.4c0.1,0.1,0.7-0.1,0.7-0.1L84.1,16.4z M84.3,18.6c0.1,0.2,0.2,0.6,0.3,0.8L84.3,18.6
					 M84.4,31.8c0.1,0,0.1,0,0.2-0.1L84.4,31.8 M84.4,28.2C84.4,28.2,84.4,28.2,84.4,28.2L84.4,28.2 M84.4,28.2
					c-0.1,0.1-0.1,0.4-0.2,0.5L84.4,28.2 M84.4,31.8L84.4,31.8L84.4,31.8 M84.2,11.3c0.2,0,0.4-0.1,0.4-0.1L84.2,11.3z M84.3,18.5
					C84.3,18.5,84.3,18.5,84.3,18.5L84.3,18.5z M84.2,17.4c-0.1,0.3,0,0.9,0.1,1.1L84.2,17.4 M84.5,16.9c-0.1,0.1-0.2,0.1-0.3,0.5
					L84.5,16.9 M83.5,10.7c0.1,0.1,0.5,0.6,0.6,0.6L83.5,10.7z M83.9,32.2c0.2-0.1,0.3-0.2,0.4-0.3L83.9,32.2z M84,13.2
					c0.1,0,0.5-0.5,0.5-0.5L84,13.2z M84,16.4c-0.2-0.1-0.7-0.4-0.8-0.4L84,16.4 M84.2,28.7c0,0.1-0.2,0.9-0.2,1.1L84.2,28.7
					 M83.9,13.3c0,0,0.1-0.1,0.1-0.1L83.9,13.3z M83,13.7c0.1-0.1,0.9-0.4,0.9-0.4L83,13.7z M83.9,30.1c0,0,0.1-0.1,0.1-0.3
					L83.9,30.1z M83.7,30.3c0.1-0.1,0.2-0.2,0.2-0.2L83.7,30.3z M83.8,22.4c0-0.2-0.1-0.6-0.2-0.7L83.8,22.4z M83.6,23
					c0.1-0.1,0.2-0.4,0.2-0.6L83.6,23z M83.7,30.3c0,0.1-0.1,0.1-0.1,0.2L83.7,30.3 M83.5,21.4c0,0,0.1,0.4,0.1,0.4L83.5,21.4
					 M83.5,21.1c0-0.2,0.1-0.4,0.1-0.4L83.5,21.1z M83.5,21.1c0,0.1-0.1,0.2,0,0.2L83.5,21.1 M83.5,10.7
					C83.5,10.7,83.5,10.6,83.5,10.7L83.5,10.7z M83.2,8.5l0.2,2.1l0,0c0,0,0,0,0.1,0.1l0.6,0.6l0.4-0.1l0,0l0.7-0.4l0.4-0.3l0.6-0.5
					l0,0l0.3-0.4l0-0.9c0,0-0.1-0.1-0.2-0.2l0,0l-0.3-0.3l-0.4-0.2l0,0l-0.6-0.2L83.9,8L83.2,8.5L83.2,8.5z M83.6,20.7
					c0-0.1-0.3-0.4-0.5-0.5L83.6,20.7z M83.6,30.5c-0.1,0.1-0.4,0.6-0.4,0.8L83.6,30.5 M83.6,23c-0.1,0-0.5,0.4-0.5,0.4L83.6,23
					 M83.3,32.1c0.1,0.1,0.4,0.1,0.6,0.1L83.3,32.1z M83.9,8c-0.2,0.2-0.6,0.3-0.6,0.5L83.9,8 M83.2,8.4c-0.1,0.2-0.1,1.7,0.2,2.1
					L83.2,8.4z M83.1,31.6c0,0,0.1,0.4,0.2,0.5L83.1,31.6 M82.9,20c0.1,0.1,0.2,0.1,0.2,0.2L82.9,20z M83.1,31.6l0.2,0.5l0.6,0.1
					l0.4-0.3l0.1,0l0.2-0.1l0.2-0.4c0.1-0.2,0.3-0.6,0.4-0.7c0,0,0-0.1,0.1-0.2l0.1-0.2l0.2-0.7c0,0,0.2-0.4,0.3-0.6v0l0.1-0.1
					l0.2-0.7l0,0l0.2-0.5l0.3-1l0,0c0-0.1,0-0.2,0.1-0.5c0-0.2,0.1-0.6,0.2-0.7l0,0v0l0,0l0.1-0.3l0,0l0.2-0.8l0-0.7l0,0
					c0-0.1,0-0.1,0-0.1c-0.1-0.1-0.1-0.6,0-0.6c0-0.1,0.1-0.4,0.1-0.4l0,0c0,0,0-0.3,0-0.3l-0.4-1.2l0,0c0,0,0-0.1,0-0.1
					c0,0,0-0.2,0-0.2l0-0.6l0,0c0-0.1,0.1-0.8,0.1-0.9c0-0.1,0-0.2,0.1-0.4l0,0l0-0.1l-0.1-0.8l-0.3-0.4c-0.2,0-0.7-0.5-0.7-0.5
					c0,0,0,0,0,0l-0.2-0.1h-0.4c0,0-0.1,0-0.1,0l-0.7,0.2l-0.3,0.5l0.1,1.1v0.1l0,0.1l0.3,0.8l0.1,0.1l0,0.1l0.2,0.6l0,0
					c0,0,0.2,0.4,0.1,0.4c0,0.2,0,0.5,0,0.5l0.1,0.5c0,0,0.1,0.8,0,0.8c0.1,0.2,0,1,0,1l0,0c0,0.1-0.1,0.7-0.1,0.8
					c0,0-0.2,1.1-0.2,1.1c0,0,0,0.1,0,0.1l0,0.2l0,0.2v0c0,0.2,0,0.4,0,0.4c0,0-0.1,0.2-0.1,0.5v0c0,0,0,0,0,0.1V27c0,0,0,0,0,0.1v0
					c0,0,0,0.1,0,0.1v0c0,0,0,0,0,0.1l0,0.1c0,0,0,0,0,0.1l0,0.2l-0.2,0.5l0,0.1l0,0l-0.2,0.5l0,0l-0.2,1.1c0,0.1,0,0.2-0.1,0.3
					c0,0-0.1,0.1-0.2,0.2l0,0l-0.1,0.2l-0.4,0.8L83.1,31.6L83.1,31.6L83.1,31.6z M83.1,31.2c-0.1,0.2,0,0.4,0,0.4L83.1,31.2
					 M83.1,23.5c0,0-0.1,0.1-0.1,0.2L83.1,23.5 M82.8,23.8c0.1,0,0.1-0.1,0.2-0.2L82.8,23.8z M82.9,20c0,0-0.1,0-0.1-0.1L82.9,20
					 M82.8,19.9c-0.2-0.1-0.9-0.3-1-0.4L82.8,19.9z M82.6,24c0.1,0,0.1-0.1,0.2-0.1L82.6,24 M82.6,24c-0.2,0.1-0.4,0.2-0.4,0.3
					L82.6,24 M82.3,14.4c0.1-0.1,0.1-0.2,0.1-0.2L82.3,14.4 M82.4,15.4c0.1,0.2,0.3,0.3,0.3,0.3L82.4,15.4z M82.3,14.8
					c0,0,0,0.4,0.1,0.6L82.3,14.8 M82.3,14.8c0,0,0.1-0.3,0-0.4L82.3,14.8z M82.7,15.7l0.5,0.3h0c0.1,0.1,0.7,0.3,0.8,0.4l0.7-0.1
					l0.2-0.1l0.3-0.3c0.1-0.1,0.6-0.8,1-1.2c0,0,0.5-0.5,0.6-0.6l0,0c0,0,0.4-0.5,0.4-0.5c0,0,0.6-0.5,0.6-0.5c0,0,0,0,0.1,0
					l0.3-0.2l0.2-0.3c0-0.1,0.1-0.3,0.2-0.4c0,0,0,0,0,0l0.2-0.4l0-0.6l0,0l-0.2-0.6l-0.4-0.3l0,0l-0.5-0.2l-2,1.1
					c0,0.1-0.1,0.2-0.2,0.2c-0.2,0.2-0.3,0.4-0.5,0.6c0,0-0.1,0.2-0.2,0.3l0,0l-0.2,0.3c0,0.1-0.4,0.5-0.5,0.5c0,0-0.1,0.1-0.1,0.1
					c0,0-0.8,0.4-0.9,0.4h0L82.6,14l-0.2,0.2l0,0c0,0,0,0.1-0.1,0.2c0,0.1,0,0.4,0,0.4l0,0l0.1,0.6L82.7,15.7L82.7,15.7L82.7,15.7z
					 M82.2,24.2c-0.1,0-0.1,0.1-0.2,0.2L82.2,24.2 M81.8,24.6c0.1,0,0.1-0.1,0.2-0.2L81.8,24.6 M81.8,19.5c-0.1,0-0.1,0-0.2,0H81.8
					 M81.2,24.9c0.2-0.1,0.5-0.2,0.6-0.3L81.2,24.9z M81.5,19.5C81.5,19.5,81.6,19.5,81.5,19.5L81.5,19.5z M80.9,15.2
					c0.1-0.1,1-1.2,0.6-1.7L80.9,15.2 M81.5,22c0-0.1-0.2-0.7-0.4-1L81.5,22z M80.5,23.1c0.2-0.1,1-0.9,1-1L80.5,23.1 M81.4,13.3
					c0,0,0.1,0.1,0.1,0.1L81.4,13.3z M81.2,24.9c-0.1,0-0.2,0.1-0.2,0.1L81.2,24.9 M81,21c0,0,0.1,0,0.1,0L81,21z M81,12.9
					c0,0.1,0.4,0.4,0.4,0.4L81,12.9z M81,12.9c-0.2-0.1-0.4-0.4-0.6-0.4L81,12.9 M80.3,22.2c0,0,0.6-0.8,0.7-1.2L80.3,22.2z
					 M80.3,24.8c0.2,0.1,0.6,0.2,0.6,0.2L80.3,24.8z M80.9,15.2c-0.1,0-0.3,0.6-0.3,0.8L80.9,15.2 M80.6,15.9c0,0-0.3,0.6-0.3,0.7
					L80.6,15.9 M80.4,12.5c-0.2-0.1-0.4-0.1-0.4-0.1L80.4,12.5 M81.5,19.5c-0.5,0.2-0.9,0.3-1.2,0.6L81.5,19.5 M79.9,22.8
					c0,0,0.4-0.5,0.4-0.6L79.9,22.8 M80.2,20.3C80.3,20.2,80.3,20.2,80.2,20.3L80.2,20.3z M80.3,16.6c0,0-0.1,0.3-0.1,0.6L80.3,16.6
					 M80.2,24.9C80.2,24.9,80.2,24.9,80.2,24.9L80.2,24.9 M79.8,25.3c0,0,0.3-0.2,0.4-0.4L79.8,25.3 M80.2,20.2
					c-0.1,0.1-0.2,0.1-0.2,0.2L80.2,20.2 M80,17.7c0-0.1,0.1-0.2,0.1-0.5L80,17.7 M79.9,17.9c0.1-0.1,0.1-0.2,0.1-0.2L79.9,17.9
					 M80,12.5c0,0-0.6,0-0.8,0L80,12.5z M80,23.1c0.1,0.1,0.5,0,0.5,0L80,23.1z M80,20.5c0,0-0.1,0.2-0.2,0.3L80,20.5 M79.8,22.8
					c0,0.1,0,0.2,0.1,0.4L79.8,22.8 M79.9,17.9c-0.1,0.1-0.1,0.2-0.1,0.2L79.9,17.9 M79.4,21.4c0.1,0,0.2-0.4,0.4-0.6L79.4,21.4
					 M79.5,25.3c0.2,0,0.3,0,0.3,0L79.5,25.3z M79.8,18.1c-0.1,0-0.4,0.6-0.4,0.7L79.8,18.1 M78.9,25.1c0.2,0.1,0.4,0.2,0.6,0.2
					L78.9,25.1z M79,22c0.1,0,0.4-0.5,0.4-0.6L79,22z M79.2,12.5c-0.2,0-0.6,0.2-0.7,0.3L79.2,12.5 M78.7,24.9
					c0.1,0.1,0.1,0.1,0.2,0.2L78.7,24.9z M78.5,22.2c0,0,0.5-0.2,0.4-0.2L78.5,22.2z M78.7,24.9C78.6,24.9,78.6,24.8,78.7,24.9
					L78.7,24.9z M79.4,18.8c-0.1,0-0.8,1.8-0.9,2L79.4,18.8 M78.5,20.8c0,0.1,0,0.3,0,0.5L78.5,20.8 M78.5,21.8c0-0.1,0-0.3,0-0.4
					V21.8z M78.2,16.4c0,0,0.2-0.8,0.2-1.1L78.2,16.4z M78.2,22.2c0.1-0.1,0.2-0.2,0.3-0.4L78.2,22.2z M78.1,16.8
					c0.1-0.2,0.2-0.4,0.1-0.4L78.1,16.8z M78.5,15.3c-0.1,0-0.2,0.1-0.2,0.2L78.5,15.3 M78.2,22.3c0,0.1,0.3,0,0.3,0L78.2,22.3z
					 M78.5,12.8c-0.1,0.1-0.4,0.7-0.5,0.8L78.5,12.8 M78.2,15.5c-0.1,0-0.5,0.8-0.6,0.9L78.2,15.5 M78.1,16.8C78,17,78,17.1,78,17.2
					L78.1,16.8 M77.6,14.2c0.1-0.1,0.3-0.5,0.4-0.6L77.6,14.2 M78,17.2C78,17.2,78,17.2,78,17.2L78,17.2 M77.9,17.7
					c0,0,0-0.3,0.1-0.5L77.9,17.7 M78.2,23.6c0,0-0.2-0.1-0.3-0.1L78.2,23.6 M77.9,18.1c0,0,0.1-0.3,0.1-0.4L77.9,18.1z M77.6,18.7
					c0.1-0.1,0.2-0.6,0.2-0.6L77.6,18.7z M77.9,23.6c0,0.1,0,0.4,0,0.5L77.9,23.6 M77.8,24c0,0,0,0.1,0,0.1L77.8,24 M77.8,24.4
					c0-0.1,0-0.2,0-0.2L77.8,24.4 M77.7,25c0.1-0.2,0.1-0.4,0.1-0.6L77.7,25 M77.4,25.7c0.1-0.2,0.2-0.5,0.3-0.7L77.4,25.7
					 M77.7,16.4c0,0-0.3,0.5-0.4,0.7L77.7,16.4 M77.6,19.3c0,0,0.1-0.5,0.1-0.6L77.6,19.3z M77.4,20c0-0.1,0.2-0.7,0.2-0.8L77.4,20z
					 M77.1,14.8c0.1,0,0.4-0.6,0.5-0.6L77.1,14.8z M77.4,25.7c-0.1,0.1-0.1,0.3-0.1,0.5L77.4,25.7 M77.3,17.6c0-0.1,0-0.3,0-0.4
					V17.6z M77.3,17c0,0,0,0.1,0,0.1L77.3,17 M77,18.3c0.1-0.1,0.3-0.5,0.4-0.8L77,18.3z M77.2,20.6l-0.1,0.1
					C77.2,20.7,77.2,20.6,77.2,20.6 M77.1,26.4c0-0.1,0.1-0.2,0.1-0.3L77.1,26.4 M77.2,20.7l-0.1,0.1C77.1,20.9,77.2,20.8,77.2,20.7
					 M76.6,15.3c0.1-0.1,0.5-0.5,0.5-0.5L76.6,15.3 M77.1,20.9L77.1,20.9C77.1,21,77.1,20.9,77.1,20.9 M77,26.7c0,0,0.1-0.1,0.1-0.2
					L77,26.7 M77.1,31.4c0-0.3-0.6-1.6-0.9-2.3L77.1,31.4z M76.4,32.1c0.3-0.1,0.7-0.4,0.7-0.7L76.4,32.1z M77,21.2
					c-0.1,0.2-0.1,0.6-0.2,0.8L77,21.2 M77,26.7c0,0.1-0.1,0.1-0.1,0.2L77,26.7 M76,18.9c0.2-0.1,0.9-0.6,1-0.6L76,18.9 M76.9,26.9
					c0,0-0.1,0.2-0.1,0.5L76.9,26.9 M76.7,22.4c0,0,0-0.1,0.1-0.3L76.7,22.4 M76.6,28.1c0.1-0.2,0.1-0.5,0.2-0.8L76.6,28.1z
					 M76.6,22.9c0.1-0.2,0.2-0.5,0.2-0.6L76.6,22.9z M76.6,15.3L76.6,15.3C76.6,15.4,76.6,15.3,76.6,15.3 M76.2,15.8
					c0.1-0.1,0.3-0.3,0.4-0.4L76.2,15.8 M76.4,28.5c0.1-0.1,0.1-0.2,0.2-0.4L76.4,28.5z M76.6,22.9c-0.1,0.2-0.2,0.6-0.2,0.9
					L76.6,22.9 M76.2,29.1c0.3-0.2,0.2-0.3,0.2-0.5L76.2,29.1z M76.3,23.8c0,0.1,0,0.2,0,0.2L76.3,23.8 M76.3,24.3c0,0,0-0.1,0-0.2
					V24.3z M75.8,32.1c0.2,0,0.3,0,0.6,0L75.8,32.1z M76,25.5c0.1-0.2,0.4-1.1,0.4-1.2L76,25.5z M76,25.5c0,0.1-0.1,0.2-0.1,0.4
					L76,25.5 M75.7,16.2c0.2-0.1,0.4-0.3,0.4-0.3L75.7,16.2z M75.4,19.2c0.2,0,0.4-0.1,0.6-0.2L75.4,19.2 M75.9,25.9
					c-0.1,0.2-0.1,0.4-0.1,0.5L75.9,25.9 M74.8,16.6c0.1,0,0.9-0.4,0.9-0.4L74.8,16.6z M75.7,26.5c0,0.1-0.1,0.3-0.1,0.4L75.7,26.5
					 M75.6,27c0,0,0,0.1,0,0.1L75.6,27 M75.6,27.3c0,0,0-0.1,0-0.2L75.6,27.3 M75.6,27.3c-0.1,0.2-0.1,0.5-0.2,0.7L75.6,27.3
					 M75,29.1c0.1-0.3,0.3-0.9,0.3-1L75,29.1 M75.1,31.7c0,0,0.5,0.3,0.7,0.4L75.1,31.7 M74.8,16.6c-0.1,0-0.5,0.2-0.6,0.2
					L74.8,16.6 M74.5,30.1c0,0.4,0.3,1.5,0.6,1.7L74.5,30.1 M75,29.1c-0.1,0-0.5,0.6-0.5,1L75,29.1 M74.4,18.8
					c0.2,0.2,0.8,0.4,1,0.4L74.4,18.8z M74.2,16.8c-0.1,0-0.2,0.1-0.3,0.2L74.2,16.8 M73.9,17c-0.1,0.1-0.2,0.2-0.2,0.2L73.9,17
					 M80,23.1c-0.1-0.1-0.1-0.2-0.1-0.4l0.4-0.6h0L81,21l0.1,0v0c0.2,0.4,0.4,0.9,0.4,1c0,0.1-0.7,0.9-1,1
					C80.5,23.1,80.1,23.3,80,23.1 M75.1,31.7l0.7,0.4l0.6,0l0.7-0.7l-0.9-2.3l0.2-0.5l0.2-0.4l0.2-0.8c0.1-0.2,0.1-0.4,0.1-0.5
					c0-0.1,0.1-0.1,0.1-0.2l0,0l0.1-0.2l0.1-0.3l0,0c0-0.2,0.1-0.4,0.1-0.5l0.3-0.7l0.1-0.6l0-0.2l0,0c0-0.1,0-0.1,0-0.1
					c0-0.1,0-0.4,0-0.5c0.1,0,0.3,0.1,0.3,0.1l0,0l0.4,1.2c0,0,0.1,0,0.1,0.1l0,0l0.2,0.2l0.6,0.2l0.3,0l0,0l0.4-0.4l0,0l0,0
					l0.6,0.2c0,0,0.1,0,0.2-0.1c0,0,0.1,0,0.2-0.1l0,0l0.6-0.3l0.2-0.2c0.1-0.1,0.2-0.2,0.2-0.2c0,0,0.2-0.1,0.4-0.3h0l0.2-0.1
					l0.2-0.2c0.1-0.1,0.1-0.1,0.1-0.2c0,0,0.4-0.4,0.5-0.4l0.2-0.6l-0.2-0.7l0,0c0,0-0.2-0.4-0.1-0.4c0,0,0-0.1,0-0.2l0.1-0.4
					l-0.5-0.5c-0.1,0-0.1-0.1-0.2-0.2l0,0l-0.1-0.1l-1-0.4h-0.2c0,0-0.1,0-0.1,0l-1.2,0.6c0,0,0,0-0.1,0.1L80,20.4l-0.2,0.3l0,0
					c-0.1,0.3-0.3,0.6-0.4,0.6c0,0.1-0.4,0.6-0.4,0.6c0,0-0.4,0.3-0.4,0.2c0,0-0.3,0.1-0.3,0l0,0l0.3-0.4v-0.4c0-0.2,0-0.4,0-0.5
					c0.1-0.2,0.8-2,0.9-2c0,0,0.3-0.7,0.4-0.7c0-0.1,0.1-0.1,0.1-0.2l0.1-0.2l0.1-0.5c0.1-0.3,0.1-0.6,0.1-0.6c0,0,0.3-0.6,0.3-0.6
					c0.1-0.2,0.2-0.7,0.3-0.8l0,0l0.6-1.8c0,0-0.1-0.1-0.1-0.1l0,0c0,0-0.4-0.3-0.4-0.4l-0.6-0.4L80,12.5l-0.8,0l-0.7,0.3L78,13.6
					c-0.1,0.1-0.4,0.5-0.4,0.6h0v0c-0.1,0.1-0.4,0.6-0.5,0.6c0,0.1-0.4,0.4-0.5,0.5l0,0l0,0.1l0,0c-0.1,0.1-0.3,0.4-0.4,0.4
					c0,0-0.3,0.2-0.4,0.3c0,0-0.8,0.4-0.9,0.4h0l0,0l-0.6,0.2L73.9,17l-0.2,0.2l0,0l0,0.4l0.7,1.2l1,0.4L76,19l0,0l1-0.6l0.4-0.8
					v-0.4c0-0.1,0-0.1,0-0.1c0.1-0.2,0.3-0.6,0.4-0.7c0.1-0.1,0.5-0.9,0.6-0.9c0,0,0.1-0.1,0.2-0.2c0,0.3-0.2,1.1-0.2,1.1
					c0,0-0.1,0.2-0.1,0.4l0,0L78,17.2v0.1l0,0c0,0.2,0,0.5-0.1,0.5c0,0,0,0.4-0.1,0.4c0,0-0.1,0.5-0.2,0.6c0,0.1,0,0.5-0.1,0.6
					c0,0-0.1,0.7-0.2,0.8l0,0l-0.2,0.5l-0.1,0.1l-0.1,0.1l0,0.1l-0.1,0.2L76.9,22l0,0c0,0.2-0.1,0.3-0.1,0.4c0,0-0.1,0.4-0.2,0.6
					l-0.2,0.9v0.2c0,0.1,0,0.2,0,0.2c0,0-0.3,1-0.4,1.2l0,0v0l-0.1,0.4v0l-0.1,0.5v0.1l-0.1,0.4V27l0,0.1c0,0.1,0,0.2,0,0.2L75.5,28
					v0c-0.1,0.2-0.2,0.8-0.3,1l-0.5,1L75.1,31.7L75.1,31.7z M73.7,17.6c0,0.4,0.5,1.1,0.7,1.2L73.7,17.6z M73.7,17.3
					c0,0-0.1,0.3,0,0.4L73.7,17.3"/>
				<path class="st0" d="M56.7,44.5c0.1,0.5-1,1.5-1.2,1.7L56.7,44.5z M56.7,44.5c0.2-0.4,0-0.8,0-0.9L56.7,44.5z M56.6,43.6
					c-0.1-0.3-0.5-0.4-0.8-0.7L56.6,43.6z M55.6,42.8c0.1,0.1,0.2,0.1,0.2,0.2L55.6,42.8z M54.7,46.3c0.1,0,0.5,0,0.7-0.1L54.7,46.3
					z M54.7,46.3C54.7,46.3,54.7,46.3,54.7,46.3L54.7,46.3 M54.7,46.3c0,0,0,0-0.1,0L54.7,46.3z M55.6,42.8c0,0-0.9-0.4-1.1-0.4
					L55.6,42.8z M54.5,42.3c-0.2-0.1-0.5-0.2-0.5-0.2L54.5,42.3 M53.7,46c0.2,0.1,0.7,0.3,0.9,0.3L53.7,46z M53.3,45.7
					c0,0,0.1,0.2,0.4,0.3L53.3,45.7z M53.1,41.6c0,0,0.5,0.4,0.8,0.5L53.1,41.6z M53.1,41.6c-0.4-0.2-0.8-0.5-1.2-0.7L53.1,41.6
					 M52.5,44.9c0,0,0.7,0.7,0.8,0.8L52.5,44.9z M52.5,44.7c0,0,0.1,0.1,0.1,0.1L52.5,44.7z M52.5,44.7c-0.1-0.1-0.2-0.3-0.3-0.5
					L52.5,44.7z M52.1,44.3c-0.2-0.2-1.8-1.1-2.8-1.8L52.1,44.3 M52,40.9c-0.1,0-0.1-0.1-0.2-0.1L52,40.9 M51.3,40.6
					c0.2,0.2,0.3,0.2,0.5,0.2L51.3,40.6z M51.7,45.7c0,0.1,0,0.2,0,0.3L51.7,45.7 M51.7,45.7c0-0.2,0-0.3-0.1-0.5L51.7,45.7z
					 M51.7,45.9c0,0.1-0.2,0.8-0.2,0.8L51.7,45.9 M51.5,46.7c0,0,0,0.8,0,0.8L51.5,46.7 M51.6,45.2c-0.1-0.2-0.3-0.3-0.5-0.4
					L51.6,45.2z M50.4,49.4c0.1-0.1,0.7-1.1,1.1-1.8L50.4,49.4z M50.9,44.6c0,0.1,0.1,0.1,0.2,0.2L50.9,44.6z M50.9,44.6
					c0,0,0-0.1,0-0.2L50.9,44.6z M50.8,44.2c0,0,0,0.1,0,0.2L50.8,44.2 M50.8,44.2c-0.1-0.2-0.1-0.5-0.4-0.7L50.8,44.2 M50.5,43.5
					c-0.3-0.2-0.8-0.4-1.1-0.4L50.5,43.5 M50.3,49.5L50.3,49.5C50.4,49.4,50.3,49.4,50.3,49.5 M50.3,49.5c-0.1,0.1-0.3,0.2-0.3,0.2
					L50.3,49.5 M50,49.7C50,49.7,50,49.7,50,49.7L50,49.7 M48.8,50.1c0.5,0.1,0.9-0.3,1.2-0.4L48.8,50.1z M49.2,53.9
					c0,0,0.2-0.2,0.2-0.5L49.2,53.9z M49.4,43.1c-0.2,0-0.3,0-0.4,0H49.4z M49.2,53.9C49.2,53.9,49.2,53.9,49.2,53.9L49.2,53.9
					 M49.1,54c-0.1,0.1-0.2,0.2-0.3,0.2L49.1,54 M49.4,53.4c0-0.4-0.3-0.8-0.3-0.8L49.4,53.4z M48.8,46.7c0.1-0.3,0.3-0.6,0.3-0.8
					L48.8,46.7z M48.8,43.1c0,0,0.1,0,0.2,0H48.8z M49.1,52.6c0,0-0.1-0.2-0.2-0.4L49.1,52.6z M48.8,52.2c-0.2-0.2-0.4-0.2-0.6-0.3
					L48.8,52.2 M48.6,43.1c0.1,0,0.2,0,0.2,0L48.6,43.1L48.6,43.1z M51.3,40.6c0,0-1.7-1.2-2.5-1.7L51.3,40.6 M48.8,54.2
					c-0.1,0-0.2,0-0.6,0H48.8z M48.8,46.6c0,0.1-0.1,0.2-0.1,0.2L48.8,46.6 M48.5,47.8c0.1-0.3,0.1-0.6,0.2-0.9L48.5,47.8
					 M48.6,43.1c-0.1,0-0.2,0-0.2,0H48.6 M49,45.9c0,0-0.3-0.3-0.4-0.4L49,45.9z M49.1,42.3c0,0-0.4-0.3-0.8-0.6L49.1,42.3
					 M48.1,45.6c0.2,0,0.4,0,0.5-0.1L48.1,45.6z M48.3,48.4c0.1-0.1,0.2-0.5,0.1-0.6L48.3,48.4z M48.5,43.1C48.3,43,48,43,48,43
					L48.5,43.1 M48.3,48.8c0-0.1,0.1-0.4,0-0.4L48.3,48.8z M48.3,48.8C48.3,48.8,48.3,48.8,48.3,48.8L48.3,48.8L48.3,48.8z
					 M47.8,41.3c0.1,0.1,0.3,0.2,0.5,0.4L47.8,41.3 M46.8,37.7c0.5,0.4,1.3,0.8,2,1.2L46.8,37.7z M48.3,48.8
					c-0.1,0.1-0.3,0.4-0.2,0.6L48.3,48.8 M47.5,54c0.1,0.1,0.5,0.2,0.7,0.2L47.5,54z M47.6,47.8c0.2-0.3,0.5-1.5,0.5-2.2L47.6,47.8z
					 M48,49.4c0,0.3,0.7,0.7,0.7,0.7L48,49.4z M48,43c0,0-0.1,0-0.2,0L48,43z M47.8,51.6c0.2,0.2,0.4,0.3,0.5,0.3L47.8,51.6z
					 M47.3,42.9c0,0,0.3,0,0.5,0.1L47.3,42.9 M47.8,51.6c-0.2-0.2-0.5-0.3-0.5-0.3L47.8,51.6 M47.5,54C47.5,54,47.5,54,47.5,54
					L47.5,54z M47.4,54c0,0-0.1,0-0.2,0L47.4,54z M46.3,50.7c0,0,1,0.6,1,0.6L46.3,50.7z M47.2,47.9c0.1,0,0.2,0.1,0.4-0.2
					L47.2,47.9z M47.2,47.9C47.2,47.9,47.1,47.9,47.2,47.9L47.2,47.9 M47.1,40.5c0.3,0.4,0.6,0.7,0.7,0.8L47.1,40.5z M46.8,48.7
					c0.1-0.2,0.3-0.5,0.3-0.6L46.8,48.7z M46.8,53.8c0.1,0,0.2,0.1,0.4,0.1L46.8,53.8z M47.1,48c0-0.1-0.1-0.1-0.2-0.2L47.1,48z
					 M47.1,48c-0.1-0.1-0.1-0.1-0.3-0.3L47.1,48 M46.4,49.3c0.2-0.1,0.4-0.4,0.4-0.7L46.4,49.3z M45.2,52.9c0.6,0.3,1.4,0.9,1.6,1
					L45.2,52.9z M46.7,47.3c0-0.1-0.1-0.2-0.1-0.2L46.7,47.3z M46.6,47.7c0-0.1,0.1-0.2,0.1-0.4L46.6,47.7z M46.8,47.3l0,0.4
					c0-0.4,0-0.7-0.1-1.1L46.8,47.3z M46.6,47.7c0,0.1,0.2,0.2,0.3,0.2L46.6,47.7 M46.6,47c-0.1-0.5-0.2-1-0.5-1.5L46.6,47z
					 M46.5,42.9c0.4,0.2,0.5,0,0.8,0.1L46.5,42.9 M46.3,42.2c0.2-0.6,0.2-1.5,0-1.8L46.3,42.2z M46.5,42.9c0.1-0.3,0.1-0.5-0.2-0.7
					L46.5,42.9z M47.1,40.5c-0.3-0.4-0.7-0.9-0.9-1.1L47.1,40.5 M46.2,39.5c-0.3-0.3-0.7-0.5-1-0.7L46.2,39.5z M46.2,45.4
					C46.2,45.4,46.2,45.3,46.2,45.4L46.2,45.4L46.2,45.4z M46.2,45.3C46.2,45.3,46.2,45.2,46.2,45.3L46.2,45.3
					C46.2,45.4,46.2,45.3,46.2,45.3L46.2,45.3L46.2,45.3z M46.2,45.4L46.2,45.4L46.2,45.4C46.1,45.5,46.2,45.4,46.2,45.4 M46.1,45
					l0.1,0.2c0,0,0.1,0.1,0.1,0.1L46.1,45L46.1,45z M46.1,45l0.2,0.3l0,0l0,0.1l0.5,1.2c0-0.1-0.3-1.5-0.7-1.8
					C46,44.8,46.1,45,46.1,45z M46.1,45L46.1,45c0,0,0,0.1,0.1,0.2L46.1,45L46.1,45z M46,50.4c0,0,0.2,0.2,0.3,0.3L46,50.4z
					 M45.9,49.4c0.1,0,0.3,0,0.5,0L45.9,49.4 M46,44.8L46,44.8C45.9,44.9,46,44.8,46,44.8 M45.8,50.2c0,0,0.1,0.2,0.2,0.2L45.8,50.2
					z M46.3,40.4c-0.1-0.2-0.9-0.5-1.3-0.1L46.3,40.4z M45.3,36.2c0,0,1,1.1,1.5,1.5L45.3,36.2z M45.2,38.8c0,0-0.1,0.1-0.1,0.2
					L45.2,38.8 M45,48.7c0.3,0.2,0.8,0.7,0.9,0.7L45,48.7 M45.1,36c0.1,0.1,0.1,0.2,0.1,0.2L45.1,36z M45.1,36
					c0-0.1-0.1-0.2-0.2-0.3L45.1,36z M45.1,49.7c0,0,0.6,0.5,0.7,0.5L45.1,49.7z M42.9,51.3c0.5,0.4,1.4,1,2.2,1.5
					C45.1,52.8,42.9,51.3,42.9,51.3z M44.9,40.6c0,0,0.1-0.2,0.2-0.2L44.9,40.6z M44.2,40.7c0.3-0.3,0.7-1.2,1-1.8L44.2,40.7z
					 M43.1,48.3c0,0,1.3,0.9,2,1.3L43.1,48.3z M45,48.7c0,0-0.1-0.2-0.1-0.2L45,48.7z M44.9,40.6c-0.1,0.1-0.3,0.4-0.4,0.7
					L44.9,40.6 M44.8,35.5c0.1,0.1,0.1,0.2,0.2,0.2L44.8,35.5z M44.7,46.1c0,0,0-0.7,0-0.8L44.7,46.1z M44.7,46.1
					C44.7,46.1,44.7,46.1,44.7,46.1L44.7,46.1z M44.6,45.1c0,0,0.1,0.2,0.1,0.2L44.6,45.1z M44.9,48.5c0,0-0.1-0.1-0.3-0.3
					L44.9,48.5z M44.2,41.8c0.1-0.1,0.2-0.3,0.3-0.6L44.2,41.8z M44.6,45.1c-0.1-0.2-0.3-0.4-0.4-0.5L44.6,45.1z M44.2,44.8
					c-0.1,0.1-0.2,0.2-0.2,0.4L44.2,44.8 M43.9,45.2c0.2,0.4,0,0.5,0.7,0.9L43.9,45.2z M44.7,35.5c-0.2-0.3-0.4-0.6-0.6-0.9
					L44.7,35.5z M44.1,47.6c0.1,0.2,0.3,0.4,0.5,0.6L44.1,47.6z M43.9,46.9c0,0.1,0,0.4,0.2,0.7L43.9,46.9 M43.6,42.1
					c0.1,0,0.4-0.2,0.5-0.3L43.6,42.1z M43.9,41.2c0.2-0.2,0.2-0.3,0.3-0.5L43.9,41.2z M43.9,46.9c-0.1-0.1-0.2-0.1-0.2-0.2
					L43.9,46.9z M43.6,41.4c0.1,0,0.2,0,0.3-0.1L43.6,41.4z M43.5,33.9c0.3,0.3,0.5,0.6,0.6,0.7L43.5,33.9z M43.6,42.1
					C43.6,42.1,43.5,42.1,43.6,42.1L43.6,42.1z M43.6,41.4c-0.1,0-0.2,0-0.3,0.2L43.6,41.4 M43.5,37.7c0,0.1,0,0,0,0.1L43.5,37.7z
					 M43.5,37.7c-1.2-0.8-3-1.8-4.5-2.7L43.5,37.7 M43.3,38.2c0.1-0.1,0.1-0.2,0.2-0.3L43.3,38.2 M42.5,46.6c0.2,0,0.6,0.2,0.9,0
					L42.5,46.6z M43.3,41.6c0,0.1,0.1,0.4,0.2,0.5L43.3,41.6 M42.8,38.3c0.1,0,0.4,0,0.5-0.1L42.8,38.3z M43.3,41.6
					c0-0.1,0-0.1-0.1-0.1L43.3,41.6z M42.9,48.2c0.1,0.1,0.1,0.1,0.2,0.2L42.9,48.2z M43,43.9C43,43.9,43,43.8,43,43.9L43,43.9
					 M42.7,44.2c0.2-0.2,0.3-0.2,0.2-0.4L42.7,44.2z M42.9,48.2c0,0-0.1-0.1-0.2-0.2L42.9,48.2 M42.7,44.2l-0.6-0.4
					C42.3,44,42.5,44.1,42.7,44.2 M42.7,48c-0.1-0.1-0.7-0.4-1.2-0.7L42.7,48z M42.9,51.3c-0.1-0.1-0.2-0.2-0.3-0.2L42.9,51.3z
					 M42.6,51.1l-0.3-0.2C42.4,51,42.5,51,42.6,51.1 M43,43.8C43,43.8,43,43.8,43,43.8L43,43.8c0.1,0-0.3-0.2-0.3-0.2
					C42.6,43.6,43,43.8,43,43.8z M42.3,46.3c0.1,0.1,0.2,0.2,0.3,0.3L42.3,46.3z M42.5,40.2c0,0.2-0.1,0.3-0.1,0.4L42.5,40.2
					 M42.5,40.2L42.5,40.2L42.5,40.2 M43.6,33.9c-0.5-0.6-1.1-1.4-1.2-1.5L43.6,33.9z M42.4,40.7C42.4,40.7,42.4,40.6,42.4,40.7
					L42.4,40.7 M42.4,32.4c0,0-1.4-0.8-1.5-0.8L42.4,32.4 M42.5,40.2c-0.1-0.1-0.1-0.1-0.2-0.2L42.5,40.2 M42.8,38.3
					c-0.2,0.2-0.5,0.7-0.5,0.7L42.8,38.3 M42.3,39.9L42.3,39.9L42.3,39.9z M42.2,39c-0.2,0.4,0,0.8,0,0.9L42.2,39 M42.6,43.6
					c-0.1-0.1-0.4-0.3-0.4-0.2L42.6,43.6 M42.3,46.3C42.3,46.3,42.2,46.2,42.3,46.3L42.3,46.3 M42,43.2l-0.2-0.1
					C41.9,43.1,42,43.2,42,43.2 M42.2,46.2c0,0-0.2-0.4-0.3-0.5L42.2,46.2z M41.9,43.7c0-0.2,0-0.4-0.1-0.5L41.9,43.7z M41.7,40.3
					c-0.4-0.1-1-0.1-1.3,0L41.7,40.3 M41.5,50.4c0.3,0.2,0.6,0.3,0.9,0.5L41.5,50.4z M41.9,45.7c0-0.1-0.2-0.5-0.5-0.8L41.9,45.7z
					 M40.9,49.8c0.1,0.2,0.3,0.4,0.6,0.6L40.9,49.8z M40.9,31.6c-0.2,0-0.8,0-0.9,0L40.9,31.6 M40.9,49.8c0,0-0.1-0.1-0.1-0.1
					L40.9,49.8 M40.8,49.7c-0.2-0.2-0.3-0.2-0.4-0.4L40.8,49.7 M40.6,44.9c0.1,0.2,0.5,0.2,0.7,0.1L40.6,44.9z M40.6,43.7
					c-0.1,0.2-0.3,0.4-0.3,0.5L40.6,43.7 M40.5,43.4c-0.1,0.3,0,0.3,0,0.3L40.5,43.4 M40.4,40.3c-0.2,0.1-0.4,0.3-0.5,0.4L40.4,40.3
					 M40.2,44.2c0,0.1,0.2,0.5,0.4,0.7L40.2,44.2z M40.1,46.5c0,0,0.7,0.4,1.3,0.8L40.1,46.5z M40,31.7c0,0-0.6,0.1-0.9,0.1L40,31.7
					 M39.9,40.8C39.9,40.8,40,40.8,39.9,40.8L39.9,40.8 M39.9,40.8c-0.1,0.2-0.3,0.7-0.3,0.7L39.9,40.8 M39.8,48.7
					c0.1,0.2,0.3,0.4,0.4,0.5L39.8,48.7z M39.8,48.7C39.8,48.7,39.8,48.6,39.8,48.7L39.8,48.7z M39.7,48.6c0,0-0.5-0.4-1-0.8
					L39.7,48.6 M39.6,42.9c0,0,0.6,0.3,0.9,0.4L39.6,42.9z M39.6,41.5c0,0.1-0.2,0.5-0.2,0.5L39.6,41.5 M39.5,42.8
					c0,0,0.1,0.2,0.1,0.2L39.5,42.8z M39.4,42c0,0,0,0.7,0.1,0.7L39.4,42 M39.2,45.6c0.1,0.2,0.7,0.8,0.9,0.9L39.2,45.6z M39.1,31.8
					c-0.1,0-1.3,0.6-1.5,0.8L39.1,31.8 M38.4,41.2c0-0.1,0-0.2,0-0.3L38.4,41.2L38.4,41.2z M38.4,41.2
					C38.4,41.2,38.4,41.2,38.4,41.2L38.4,41.2 M38.4,40.9c0-0.1-0.1-0.1-0.1-0.2L38.4,40.9 M38.3,36.1c0.3-0.4,0.4-0.8,0.6-1.1
					L38.3,36.1z M38.3,36.1c0,0-0.2,0.9-0.2,1L38.3,36.1 M39.2,45.6c0,0-0.8-0.7-0.9-0.8L39.2,45.6z M38.3,44.8
					C38.3,44.8,38.2,44.8,38.3,44.8L38.3,44.8 M38.2,37.1L38.2,37.1L38.2,37.1 M37.5,44.3c0.2,0.2,0.5,0.4,0.7,0.5l-1.2-1
					C37.1,43.9,37.2,44,37.5,44.3 M38.2,37.2c0,0.1-0.1,0.6,0,0.6L38.2,37.2 M38.1,37.8c0,0.1,0,0.8,0,0.8L38.1,37.8 M38.1,40.4
					c0.1,0.2,0.2,0.3,0.2,0.4L38.1,40.4z M37.9,39.5c0,0,0,0.5,0.2,0.9L37.9,39.5 M38,42.1c0.2-0.2,0.3-0.6,0.4-0.9L38,42.1z
					 M37.4,42.1c0.1,0,0.5,0.2,0.6,0L37.4,42.1z M37.8,47.1c0.1,0.1,0.5,0.4,0.9,0.7L37.8,47.1z M37.6,46.9c0.1,0.1,0.1,0.1,0.2,0.2
					L37.6,46.9z M37.6,32.6c-0.1,0.1-0.1,0.1-0.2,0.2L37.6,32.6 M37.3,33.1c0,0,0.1-0.1,0.2-0.3L37.3,33.1 M37.4,42.1L37.4,42.1
					L37.4,42.1 M37.6,47c-0.2-0.2-0.4-0.5-0.6-0.6L37.6,47z M37,43.8L37,43.8C37,43.7,37,43.8,37,43.8 M36.5,40.4
					c0.1,0.5,0.2,1.1,0.3,1.2L36.5,40.4 M36.4,34.9c0,0,0.2-0.6,0.1-0.6L36.4,34.9z M37.1,46.4c0,0-0.6-0.6-0.7-0.7L37.1,46.4
					 M36.5,40.4c-0.1-0.4-0.1-0.8-0.2-0.9L36.5,40.4z M37,43.7c0,0-0.6-0.6-0.6-0.6L37,43.7z M36.3,43.1c-0.2-0.1-0.5-0.3-0.7-0.4
					L36.3,43.1z M36.3,39.5C36.3,39.5,36.3,39.5,36.3,39.5L36.3,39.5z M36.3,36.4c0,0.1,0,0.2,0,0.3L36.3,36.4 M36.3,36.6
					c0,0.1-0.2,2.4-0.2,2.7L36.3,36.6 M36.3,36.4c0-0.2,0-0.4,0-0.4L36.3,36.4z M44.7,45.3c0,0,0,0.8,0,0.8c0,0-0.1,0-0.1,0
					c-0.7-0.4-0.5-0.4-0.7-0.9c0.1-0.1,0.1-0.2,0.2-0.4l0.1-0.1c0.1,0,0.3,0.2,0.4,0.5L44.7,45.3L44.7,45.3z M42.6,43.6
					c0,0,0.4,0.2,0.4,0.2l0,0l-0.1,0c0,0.2-0.1,0.2-0.2,0.4l-0.6-0.4l-0.2-0.1l-0.1-0.5c0,0,0,0,0-0.1h0c0.1,0,0.1,0.1,0.2,0.1
					l0.2,0.1C42.2,43.4,42.5,43.6,42.6,43.6 M36.8,41.6l0.6,0.5c0,0,0,0,0,0l0.6,0l0.4-0.9c0,0,0,0,0,0v-0.3l-0.1-0.2
					c-0.1-0.1-0.2-0.1-0.2-0.4c-0.2-0.4-0.2-0.9-0.2-0.9l0.2-0.9c0,0,0-0.7,0-0.8c0,0,0-0.6,0-0.6l0,0c0-0.1,0.1-1,0.2-1l0.6-1.1h0
					c1.5,0.9,3.3,1.8,4.5,2.7l0,0.1c-0.1,0.1-0.1,0.2-0.2,0.3c-0.1,0.1-0.5,0.1-0.5,0.1L42.2,39l0,0.9l0,0l0,0
					c0.1,0.1,0.1,0.1,0.2,0.2l0,0l-0.1,0.4l0,0c0,0,0,0.1,0,0.1l-0.7-0.4l-1.3,0l-0.5,0.4l0,0l-0.3,0.7l0,0l-0.2,0.5l0.1,0.7
					l0.1,0.2l0.9,0.4v0.3l0,0l-0.3,0.5l0.4,0.7l0.7,0.1c0.4,0.2,0.6,0.7,0.5,0.8l0,0c0.1,0.1,0.3,0.5,0.3,0.5c0,0,0,0,0.1,0.1
					l0.3,0.3l0.9,0l0.2,0.2l0.2,0.2l0.2,0.7l0.5,0.6l0,0c0.2,0.2,0.3,0.3,0.3,0.3c0,0,0.1,0.2,0.1,0.2l0,0l0.9,0.7l0,0l0.5,0
					l0.4-0.7L47,48l-0.2-0.2c-0.1-0.1-0.2-0.1-0.3-0.2l0.1-0.4l-0.1-0.2l0-0.1L46,45.5c0,0,0-0.1,0.1-0.1L46,45.2
					c-0.1-0.1-0.1-0.1-0.1-0.3c0,0,0,0-0.1,0c0,0,0-0.1,0-0.1c0.4,0.3,0.7,1.7,0.7,1.8c0.1,0.4,0.2,0.7,0.1,1.1
					c0.2,0.1,0.2,0.2,0.3,0.3c0,0,0.1,0,0.1,0l0.4-0.2l0.5-2.2l0.5-0.1c0.2,0.1,0.5,0.3,0.4,0.4c0,0.2-0.2,0.5-0.3,0.8l-0.1,0.2
					c-0.1,0.3-0.1,0.6-0.2,0.9c0,0.1,0,0.5-0.1,0.6c0,0,0,0.3,0,0.4c0,0,0,0,0,0l0,0l-0.2,0.6l0.7,0.7l1.2-0.4c0,0,0,0,0.1,0
					c0-0.1,0.2-0.2,0.3-0.2l0,0l0.1-0.1l1.1-1.8l0.1-0.1c0,0,0-0.7,0-0.8c0,0,0.1-0.7,0.2-0.8c0,0,0-0.1,0-0.3l-0.1-0.5L51,44.7l0,0
					c-0.1,0-0.1-0.1-0.2-0.2l0-0.2l0,0c0-0.1,0-0.2,0-0.2l-0.4-0.7L49.2,43h-0.4c-0.1,0-0.1,0-0.2,0c0,0-0.1,0-0.2,0h-0.2l-0.4,0
					l-0.2,0c-0.2,0-0.4,0-0.5-0.1h0c-0.3,0-0.4,0.1-0.8-0.1l-0.2-0.7l0-1.8l-1.3-0.1c0,0.1-0.1,0.3-0.2,0.2l-0.4,0.7
					c-0.1,0.2-0.2,0.5-0.3,0.6c-0.1,0.1-0.4,0.2-0.5,0.3l-0.1,0c-0.1-0.1-0.2-0.4-0.2-0.5l-0.1-0.1c0.1-0.1,0.2-0.1,0.3-0.2l0.3-0.1
					l0.3-0.5l1-1.8v0c0-0.1,0.1-0.1,0.1-0.2c0.3,0.2,0.7,0.4,1,0.7c0.2,0.2,0.6,0.6,0.9,1.1l0.7,0.8l0.5,0.4l0,0
					c0.4,0.3,0.8,0.6,0.8,0.6l0.2,0.1c1,0.6,2.6,1.6,2.8,1.8c0.2,0.2,0.3,0.3,0.3,0.5l0,0l0.1,0.1l0,0l0.8,0.8l0,0l0.4,0.3l0.9,0.3
					c0.1,0,0.1,0,0.1,0c0,0,0,0,0.1,0l0,0l0.7-0.1l1.2-1.7l0-0.9l-0.8-0.7c-0.1-0.1-0.2-0.1-0.2-0.2l-1.1-0.4l-0.5-0.2
					C53.5,42,53,41.6,53,41.6l-1.2-0.7l-0.2-0.1c-0.2-0.1-0.3,0-0.5-0.2l-2.5-1.7c-0.7-0.4-1.5-0.8-2-1.2s-1.5-1.4-1.5-1.5
					c0,0-0.1-0.1-0.1-0.2l-0.2-0.3l0,0c0-0.1-0.1-0.1-0.2-0.2v0L44,34.6c-0.1-0.1-0.3-0.4-0.6-0.7l-1.2-1.5l-1.5-0.8l-0.9,0L39,31.8
					l-1.5,0.8l-0.2,0.2l0,0c-0.1,0.2-0.2,0.3-0.2,0.3l-0.7,1.2c0,0-0.1,0.6-0.1,0.6l0,0l-0.2,0.3l0,0.5c0,0.1,0,0.1,0,0.1
					c0,0,0,0.2,0,0.4l0,0v0.3L36,39.3l0.2,0.2c0,0,0,0,0,0c0,0.1,0.1,0.5,0.2,0.9l0.3,1.2L36.8,41.6z M36.2,35.9c0,0,0-0.1,0-0.1
					V35.9 M36.2,35.2c-0.1,0.2,0,0.4,0,0.5L36.2,35.2 M36.4,34.9c0,0-0.1,0-0.2,0.3L36.4,34.9 M36.1,39.3c0.1,0.2,0.1,0.1,0.2,0.2
					L36.1,39.3z M35.7,42.7c-0.2-0.1-0.3-0.3-0.7-0.3L35.7,42.7 M36.3,45.7c0,0-0.9-0.9-1-0.9L36.3,45.7z M34.9,42.4
					c-0.3,0-0.6,0.3-0.6,0.3L34.9,42.4 M35.3,44.8c0,0-0.4-0.4-0.7-0.5L35.3,44.8 M34.3,42.7c0,0-0.3,0.8-0.2,1L34.3,42.7
					 M34.1,43.7c0,0.2,0.4,0.4,0.5,0.5L34.1,43.7 M37.8,47.2l0.9,0.7l0,0c0.5,0.4,1,0.8,1,0.8c0,0,0,0,0.1,0.1l0.4,0.5l0.1,0.1
					c0.2,0.1,0.3,0.2,0.4,0.4c0,0,0.1,0.1,0.1,0.1l0.6,0.6l0.9,0.5h0c0.1,0.1,0.2,0.1,0.3,0.2c0.1,0,0.2,0.1,0.3,0.2l0,0l2.2,1.5
					l0.1,0.1l1.6,1l0.4,0.1c0.1,0,0.2,0,0.2,0c0,0,0,0,0.1,0l0.7,0.2c0.3,0,0.5,0,0.6,0c0.1-0.1,0.2-0.2,0.3-0.2l0.1-0.1
					c0,0,0,0,0,0l0.2-0.5L49,52.6l-0.2-0.4l-0.6-0.3c0,0-0.2-0.1-0.5-0.3h0l-0.5-0.3c0,0-1-0.6-1-0.6c-0.1-0.1-0.3-0.2-0.3-0.3
					c-0.1,0-0.2-0.2-0.2-0.2c-0.1-0.1-0.7-0.5-0.7-0.5c-0.7-0.4-2-1.3-2-1.3c-0.1,0-0.1-0.1-0.2-0.2L42.6,48l-1.2-0.7l0,0
					c-0.7-0.4-1.3-0.8-1.3-0.8c-0.2-0.1-0.8-0.7-0.9-0.9l-0.9-0.8l-0.1-0.1c-0.2-0.1-0.4-0.3-0.7-0.5c-0.3-0.2-0.3-0.4-0.5-0.5
					l-0.1,0h0l-0.6-0.6l-0.7-0.4l-0.7-0.3l-0.6,0.3l0,0l-0.2,1l0.5,0.5l0,0c0.2,0.2,0.7,0.5,0.7,0.5l0,0c0.1,0.1,1,0.9,1,0.9
					c0.1,0.1,0.7,0.6,0.7,0.7c0.2,0.1,0.3,0.4,0.6,0.6L37.8,47.2L37.8,47.2z"/>
				<path class="st0" d="M35.2,79.9c0.1,0.5-0.2,0.8-0.3,0.9L35.2,79.9z M34.1,81c0,0,0.6-0.2,0.7-0.2L34.1,81z M35.2,79.9
					c-0.1-0.5-0.6-0.9-0.6-0.9L35.2,79.9z M34.5,79c-0.1,0-0.1-0.1-0.3-0.2L34.5,79 M33.9,81c0.2,0,0.3,0,0.3,0L33.9,81z M34.3,78.7
					c-0.1-0.1-1-0.2-1.6-0.4L34.3,78.7 M33,80.7c0,0,0.7,0.3,0.9,0.3L33,80.7 M32.1,78.2c0,0,0.2,0.1,0.5,0.1L32.1,78.2 M33,80.7
					c-0.1,0-0.7-0.3-1.1-0.4L33,80.7 M32,80.3c0,0-0.9-0.4-1.4-0.5L32,80.3z M30.6,79.8c0,0-2.3-0.7-2.3-0.6L30.6,79.8 M29.8,77.5
					c0,0,1.7,0.5,2.2,0.7C32.1,78.2,29.8,77.5,29.8,77.5z M29.8,77.5c-0.1,0-0.5-0.1-0.5-0.1L29.8,77.5z M28.3,79.2L27.8,79
					C27.9,79.1,28.1,79.1,28.3,79.2 M26.9,76.3c0.3,0.3,1.3,0.8,1.3,0.8L26.9,76.3z M26.9,76.3c-0.3-0.1-1.1-0.5-1.3-0.6L26.9,76.3z
					 M25.6,75.7C25.6,75.7,25.6,75.7,25.6,75.7L25.6,75.7 M25.6,75.7L25.6,75.7L25.6,75.7 M25.1,75.5c0,0,0.3,0.1,0.5,0.2L25.1,75.5
					z M25,75.5C25,75.5,25,75.5,25,75.5L25,75.5z M25,75.5c-0.1,0-0.1-0.1-0.3-0.1L25,75.5 M27.8,79c-0.8-0.5-2.3-0.7-3.4-1L27.8,79
					 M24.3,78.4c0,0.2-0.1,0.5-0.1,0.7L24.3,78.4 M24.2,79.1c0,0.1,0,0.6,0,0.7V79.1 M24.1,80.5c0-0.2,0.1-0.6,0.1-0.7L24.1,80.5z
					 M24.7,75.4c-0.2-0.1-0.5-0.1-0.6-0.1L24.7,75.4z M23.9,81.1c0.1-0.2,0.2-0.5,0.2-0.6L23.9,81.1z M24,75.3
					C24,75.3,24,75.2,24,75.3L24,75.3z M23.6,81.7c0.2-0.2,0.2-0.4,0.3-0.6L23.6,81.7z M23.6,74.8c0.1,0.2,0.3,0.4,0.4,0.5
					L23.6,74.8z M23.3,74.3c0,0,0.1,0.3,0.2,0.5L23.3,74.3 M23.1,73.5c0,0.2,0.2,0.8,0.2,0.8L23.1,73.5 M23.1,73.5
					c0-0.2,0-0.4,0-0.5L23.1,73.5z M23.1,72.9C23.1,72.9,23.1,72.9,23.1,72.9L23.1,72.9 M23,72.5c0,0.2,0,0.3,0,0.3L23,72.5
					 M23,72.4C23,72.4,23,72.5,23,72.4L23,72.4z M23,72.4c0-0.2-0.1-0.4-0.1-0.5L23,72.4z M22.3,71c0,0.1,0.2,0.3,0.2,0.3L22.3,71z
					 M22.3,71c-0.1-0.2-0.1-0.3-0.2-0.4L22.3,71z M21.9,79.9c0.1,0,0.3-0.3,0.3-0.4L21.9,79.9z M22.1,78.9c0,0.2,0.1,0.6,0.1,0.6
					L22.1,78.9 M22.1,70.6c0,0-0.1-0.1-0.1-0.1L22.1,70.6z M22,78.6c0,0.1,0,0.2,0,0.3L22,78.6 M22,78.6c0-0.1,0-0.2,0-0.3V78.6z
					 M21.9,82.6c0.3-0.1,1.5-0.7,1.6-0.9L21.9,82.6z M22,78.3c0-0.2-0.1-0.4-0.1-0.5L22,78.3 M21.4,82.7c0.2,0,0.2,0,0.5-0.1
					L21.4,82.7 M21.9,70.4c0,0,0,0.1,0.1,0.1L21.9,70.4 M21.9,70c0,0,0,0.3,0,0.4L21.9,70 M21.9,77.8c-0.1-0.2,0-0.2-0.2-0.3
					L21.9,77.8z M20.7,79.6c0.2,0.1,1.1,0.3,1.2,0.3L20.7,79.6z M21.9,70c0,0,0-0.3-0.1-0.4L21.9,70z M21.7,77.4
					c-0.1-0.1-1-0.3-1.4-0.3L21.7,77.4 M21.9,69.5c-0.1-0.2-0.4-0.4-0.4-0.4L21.9,69.5z M21.5,69.1c0,0-0.3-0.1-0.3-0.1L21.5,69.1z
					 M20.3,79.1c0.1,0.2,0.2,0.3,0.4,0.4L20.3,79.1z M21.1,69c0,0-0.5-0.1-0.6-0.1L21.1,69 M20.5,68.9c-0.2,0-0.3,0.1-0.4,0.1
					L20.5,68.9 M20.3,77.1C20.3,77.1,20.4,77.1,20.3,77.1L20.3,77.1 M20.1,74.3c0.1-0.1,0.2-0.7,0.2-0.8L20.1,74.3z M20.3,77.1
					c0,0-0.1,0-0.3-0.1L20.3,77.1 M20.1,69L20.1,69C20.1,69,20.1,69,20.1,69 M20.1,69.1C20.1,69.1,20.1,69.1,20.1,69.1L20.1,69.1
					 M19.9,69.1c0,0,0.1-0.1,0.1-0.1L19.9,69.1 M20,78.7c0.1,0.1,0.2,0.3,0.3,0.4L20,78.7z M19.5,77.7c0.1,0.2,0.4,0.8,0.5,1
					L19.5,77.7 M19.3,76.8c0.2,0.1,0.5,0.1,0.7,0.2L19.3,76.8 M20.3,73.5c0-0.1-0.2-0.4-0.4-0.5L20.3,73.5z M19.9,73
					C19.9,73,19.9,73,19.9,73L19.9,73 M19.9,72.9C19.9,72.9,19.9,73,19.9,72.9L19.9,72.9z M19.9,72.9c0-0.1-0.2-0.1-0.3-0.2
					L19.9,72.9 M19.9,69.2c-0.1,0.1-0.4,0.5-0.5,0.7L19.9,69.2 M19.7,81.1C19.7,81.1,19.8,81,19.7,81.1L19.7,81.1z M19.7,74.4
					c0.1,0,0.4,0,0.4-0.1L19.7,74.4 M19.7,81.1C19.7,81.1,19.7,81.2,19.7,81.1L19.7,81.1 M19,79.9c0.2,0.4,0.5,0.7,0.8,1.1L19,79.9z
					 M19.3,74.3c0.1,0,0.3,0.1,0.4,0.1L19.3,74.3 M19.6,81.2c-0.1,0.1-0.2,0.4-0.3,0.5L19.6,81.2 M19.4,72.7c0,0,0,0,0.1,0.1
					L19.4,72.7 M19.4,77.3c0,0.1,0,0.3,0.1,0.4L19.4,77.3 M19.4,72.7c-0.1,0-0.3-0.1-0.4,0L19.4,72.7 M19.4,81.7
					c0,0.1-0.1,0.6,0,0.8L19.4,81.7 M19.4,82.5c0.1,0.2,1.9,0.3,2,0.2L19.4,82.5z M19.4,77.4c0-0.1,0-0.1,0-0.1L19.4,77.4z
					 M19.2,76.9c0,0.2,0,0.2,0.1,0.4L19.2,76.9 M18.9,74.2c0,0,0.3,0.1,0.4,0.2L18.9,74.2z M19,72.7c-0.1,0-0.3,0.7-0.3,0.9L19,72.7
					 M19.4,69.8c-0.3,0.2-0.8,0.4-0.9,0.5L19.4,69.8 M18.7,74c0,0.1,0.2,0.2,0.2,0.2L18.7,74z M18.7,73.5c0,0.2,0,0.3,0,0.4
					L18.7,73.5 M19,80c0-0.1-0.5-0.7-0.5-0.7L19,80z M18.4,70.4c-0.1,0.1-0.1,0.1-0.2,0.3L18.4,70.4 M18.2,70.6
					C18.2,70.6,18.2,70.7,18.2,70.6L18.2,70.6 M17.9,71.2c0,0,0.1-0.3,0.2-0.4L17.9,71.2 M17.7,78.2c0.2,0.3,0.7,1,0.8,1L17.7,78.2z
					 M17.5,77.7c0.1,0.1,0.1,0.3,0.2,0.5L17.5,77.7 M17.5,71.8c0,0,0.4-0.6,0.4-0.7L17.5,71.8z M17.5,71.8c-0.1,0.1-0.1,0.3-0.1,0.4
					L17.5,71.8 M17.5,77.7c0-0.1-0.1-0.2-0.1-0.2L17.5,77.7z M17.4,77.5c0,0-0.2-0.3-0.3-0.6L17.4,77.5z M17.2,73.3
					c0.3-0.2,0.2-0.7,0.2-1L17.2,73.3z M17,76.6c0,0.1,0.1,0.2,0.2,0.3L17,76.6 M17.1,73.2C17.1,73.2,17.2,73.3,17.1,73.2L17.1,73.2
					z M17.1,73.2c-0.2-0.1-0.3-0.2-0.6-0.2L17.1,73.2 M16.9,76c0,0.1,0,0.4,0.1,0.6L16.9,76 M16.9,76l-0.1,0
					C16.8,75.9,16.8,76,16.9,76 M14.2,72.2c0.7,0.3,1.3,0.6,2.3,0.8L14.2,72.2z M15.9,75.7c0,0,0.5,0.2,0.8,0.3L15.9,75.7z
					 M15.9,75.7c-0.3-0.1-0.8-0.2-1-0.2L15.9,75.7 M14.9,75.4c-0.1,0-0.1,0-0.1,0H14.9z M14.4,75.4c0.1,0,0.2,0,0.3,0L14.4,75.4
					 M14.2,75.3c0.1,0,0.1,0,0.2,0L14.2,75.3 M14.2,72.2C13.8,72,13,71.9,12.8,72L14.2,72.2 M14.1,75.3L14.1,75.3
					C14.1,75.3,14.1,75.3,14.1,75.3 M14.1,75.3c-0.5-0.1-1.5-0.3-1.5-0.3L14.1,75.3 M12.7,72.1c0.1,0,0.1,0,0.1,0L12.7,72.1
					 M12.7,72.1c-0.2,0-0.4,0.1-0.5,0.1L12.7,72.1 M12.5,75c-0.1,0-0.1,0-0.2,0H12.5z M12.2,75c0.1,0,0.1,0,0.2,0H12.2 M12.2,72.2
					c-0.2,0.1-0.2,0.2-0.3,0.3L12.2,72.2 M11.9,72.5c-0.1,0.1-0.4,0.4-0.4,0.5L11.9,72.5 M11.6,74.7c0.1,0.1,0.5,0.3,0.6,0.3
					L11.6,74.7z M11.5,73c0,0.1-0.2,1.1-0.2,1.2L11.5,73 M11.3,74.2c0,0.2,0.2,0.4,0.2,0.5L11.3,74.2z M19.3,74.3
					c-0.1,0-0.4-0.2-0.4-0.2l0,0c0,0-0.2-0.1-0.2-0.2c0-0.1,0-0.2,0-0.4c0-0.2,0.2-0.8,0.3-0.9c0.1,0,0.3,0,0.4,0l0.1,0.1
					c0.1,0.1,0.3,0.2,0.3,0.2l0,0l0.1,0.1v0h0c0.1,0.2,0.3,0.4,0.4,0.5c0,0.1-0.1,0.8-0.2,0.8c-0.1,0.1-0.3,0.1-0.4,0.1
					S19.4,74.4,19.3,74.3 M19.4,77.2c-0.1-0.1-0.1-0.2-0.1-0.4L20,77c0,0,0,0,0,0c0.1,0,0.2,0.1,0.3,0.1l0,0l0.1,0l0,0
					c0.3,0.1,1.2,0.2,1.4,0.3c0.1,0.1,0.1,0.2,0.2,0.3s0.1,0.3,0.1,0.5c0,0.1,0,0.2,0,0.3l0,0.3l0.1,0.6c0,0.1-0.2,0.3-0.3,0.4
					s-1-0.2-1.2-0.3c-0.2-0.1-0.3-0.3-0.4-0.4c-0.1-0.2-0.2-0.3-0.3-0.4l0,0c-0.1-0.1-0.4-0.8-0.5-1c0-0.1-0.1-0.3-0.1-0.4l0,0
					L19.4,77.2 M12.8,72c0,0-0.1,0-0.1,0l0,0l-0.5,0.1l-0.3,0.3L11.5,73l-0.2,1.2l0.2,0.5l0.6,0.3h0.2c0.1,0,0.1,0,0.2,0
					c0,0,1,0.2,1.5,0.3c0,0,0,0,0.1,0h0.1l0.2,0.1c0,0,0,0,0,0l0.3,0h0c0,0,0.1,0,0.1,0c0.3,0,0.8,0.2,1,0.2l0.8,0.3l0,0
					c0,0,0.1,0,0.1,0l0,0l0.1,0.6l0.2,0.3c0,0,0,0,0,0c0.1,0.2,0.3,0.5,0.3,0.6c0,0,0,0.1,0.1,0.2l0,0l0.2,0.5l0.8,1l0,0
					c0,0,0.5,0.7,0.5,0.7l0,0c0.2,0.4,0.5,0.7,0.8,1.1c0,0,0,0,0,0.1l0,0l-0.1,0.1l0,0l-0.3,0.5v0.8l2,0.2l0.5-0.1l1.6-0.9l0.3-0.6
					c0,0,0,0,0,0l0.2-0.6l0.1-0.7c0-0.1,0-0.6,0-0.7c0-0.2,0.1-0.5,0.1-0.7c0-0.1,0-0.2,0-0.3c1.1,0.3,2.6,0.5,3.4,1
					c0.2,0,0.3,0.1,0.5,0.1c0,0,2.3,0.6,2.3,0.6c0.5,0.1,1.4,0.5,1.4,0.5c0.3,0.1,1,0.4,1.1,0.4l0,0l0.9,0.3l0.3,0l0,0l0.7-0.2
					l0.3-0.9L34.6,79l-0.3-0.2l-1.6-0.4l0,0c-0.3-0.1-0.5-0.1-0.5-0.1c0,0,0,0,0,0h0c-0.5-0.2-2.2-0.7-2.2-0.7l-0.5-0.1l0,0l-1-0.2
					l0,0c0,0-1-0.5-1.3-0.8l-1.3-0.6h0v0h0c-0.1-0.1-0.5-0.2-0.5-0.2c0,0,0,0-0.1,0l-0.3-0.1l-0.6-0.1l0,0L24,75.3
					c-0.1-0.1-0.3-0.3-0.4-0.5c-0.1-0.2-0.2-0.4-0.2-0.5l0,0c0,0-0.2-0.6-0.2-0.8l0-0.5c0,0,0-0.1,0-0.1c0,0,0-0.2,0-0.3l0-0.1
					L22.9,72l0,0l-0.4-0.7l0,0c0,0-0.1-0.2-0.2-0.3l-0.2-0.4l-0.1-0.1c0,0-0.1-0.1-0.1-0.1c0-0.1,0-0.4,0-0.4l-0.1-0.4l-0.4-0.4
					l-0.3-0.1l0,0L20.5,69l-0.4,0.1l0,0c0,0,0,0,0,0c0,0,0,0,0,0c0,0-0.1,0.1-0.1,0.1l-0.5,0.7l0,0l-0.9,0.5l-0.2,0.3l0,0l0,0.1v0
					c0,0,0,0,0,0c-0.1,0.2-0.2,0.4-0.2,0.4c0,0.1-0.4,0.7-0.4,0.7l-0.1,0.4c0,0.4,0,0.8-0.2,1c0,0-0.1,0-0.1,0l-0.6-0.2
					c-0.9-0.2-1.6-0.5-2.3-0.8L12.8,72L12.8,72z"/>
				<path class="st0" d="M200.2,74.2v0.4C200.2,74.5,200.2,74.2,200.2,74.2 M199.5,76c0.3-0.2,0.7-0.9,0.7-1.4L199.5,76z
					 M200.1,73.7c0,0.1,0,0.4,0.1,0.6L200.1,73.7 M200.1,73.7c-0.2-0.3-0.4-0.4-0.6-0.5L200.1,73.7z M199.5,73.2
					c-0.3-0.1-0.8,0.1-0.8,0.1L199.5,73.2 M198.4,76.1c0,0,0.7,0.1,1.1-0.1L198.4,76.1z M198.6,77.5c0.1-0.2,0.1-0.7,0.1-0.7
					L198.6,77.5z M198.6,76.7L198.6,76.7C198.7,76.7,198.7,76.7,198.6,76.7 M198,78c0,0,0.5-0.3,0.6-0.6L198,78z M198.1,73.5
					C198.1,73.5,198.1,73.5,198.1,73.5L198.1,73.5 M198.1,73.5c-0.2,0-0.6,0.1-0.8,0.1L198.1,73.5 M197.6,78.2
					c0.2,0.1,0.3-0.1,0.4-0.1L197.6,78.2z M197.7,71.9c0.2-0.3,0.2-0.8-0.1-1.3L197.7,71.9z M197.1,77.9c0,0,0.2,0.2,0.4,0.3
					L197.1,77.9z M196.8,70c0.1,0.1,0.4,0.2,0.5,0.2L196.8,70z M197.2,73.6C197.2,73.6,197.2,73.6,197.2,73.6L197.2,73.6
					 M197.2,73.6C197.2,73.6,197.2,73.6,197.2,73.6L197.2,73.6 M197.1,73.6C197.1,73.6,197.1,73.6,197.1,73.6L197.1,73.6
					 M196.9,77.7c-0.1-0.2-0.2-0.3-0.3-0.4L196.9,77.7z M196.8,69.9c-0.1,0-0.4,0.2-0.6,0.2L196.8,69.9z M196.5,73.8
					c-0.1,0-0.8,0-0.8,0L196.5,73.8 M196.5,77.1c0-0.1-0.1-0.1-0.1-0.2L196.5,77.1z M196.3,76.9c0,0-0.4-0.3-0.6-0.5L196.3,76.9
					 M196.2,70.2L196.2,70.2C196.2,70.2,196.2,70.2,196.2,70.2 M195.7,76.4c-0.3-0.2-0.5-0.1-0.8-0.2L195.7,76.4 M195.4,70.4
					l0.1-0.1C195.5,70.3,195.4,70.3,195.4,70.4 M195.5,70.3c0-0.3-0.4-1.1-0.4-1.3L195.5,70.3z M195.7,73.8c0,0-0.9,0-1.1,0.1
					L195.7,73.8 M195.2,73.3c0,0-0.3,0-0.7-0.1L195.2,73.3 M195,68.9c-0.1-0.1-0.1-0.2-0.2-0.3L195,68.9z M194.6,73.9
					c-0.1,0-1.2-0.1-1.2-0.1L194.6,73.9 M193.8,73.2c0,0,0.4,0,0.7,0.1L193.8,73.2 M194.5,76.3c-0.2,0.1-0.4,0.4-0.5,0.5L194.5,76.3
					 M194.3,68.2c0.1,0.1,0.2,0.1,0.3,0.2L194.3,68.2z M194.2,77.6c0-0.2-0.1-0.5-0.3-0.8L194.2,77.6z M193.8,78.1
					c0.2-0.2,0.4-0.4,0.4-0.6L193.8,78.1z M194.3,68.2c-0.3,0.1-1.7,0.7-2,1L194.3,68.2 M193.3,73.2c0,0,0.4,0,0.6,0L193.3,73.2
					L193.3,73.2z M193.8,78.1c-0.3,0.2-0.8,0.7-0.8,0.8L193.8,78.1 M193.5,71.8c-0.2,0.1-0.5,0.3-0.5,0.3L193.5,71.8 M193.5,71.8
					c0-0.2,0-0.2-0.1-0.4L193.5,71.8z M193.4,73.9c0,0-0.4-0.2-0.6-0.2L193.4,73.9 M193.2,75.1c0,0,0.1,0,0.1-0.1L193.2,75.1
					 M192.8,73.3c0,0,0.3,0,0.5-0.1L192.8,73.3 M192.6,74.5c0.3,0.1,0.4,0.2,0.6,0.1L192.6,74.5z M192.9,75.3c0.1,0,0.1-0.1,0.2-0.1
					L192.9,75.3 M193.3,71.2c0,0-0.5,0.1-0.6,0.2L193.3,71.2 M192.5,79.1c0.1,0.1,0.4-0.1,0.5-0.3L192.5,79.1z M192.3,75.5
					c0.2-0.1,0.4-0.2,0.6-0.3L192.3,75.5 M192.8,72.2c0,0,0.1,0,0.1-0.1L192.8,72.2 M192.8,72.2c-0.1,0.1-0.3,0.1-0.4,0.2
					L192.8,72.2 M192.8,80.2c0-0.2-0.3-1-0.3-1L192.8,80.2z M192.8,80.2c0,0,0,0.1,0,0.1L192.8,80.2 M192.5,81.4
					c0.1-0.3,0.2-0.8,0.3-1.1L192.5,81.4z M192,72c0.2-0.2,0.6-0.6,0.7-0.6L192,72 M192.5,74.6c0,0-0.1,0-0.1,0L192.5,74.6
					 M192.4,72.4c-0.1-0.1-0.4-0.3-0.5-0.4L192.4,72.4z M192.8,73.7c0,0-0.3-0.2-0.4-0.2L192.8,73.7 M192.4,74.5c-0.2,0-0.3,0-0.4,0
					H192.4z M192.3,75.5c-0.1,0-0.2,0.1-0.2,0.1L192.3,75.5z M192.2,81.8c0,0,0.1,0,0.3-0.4L192.2,81.8z M192.2,69.3
					c-0.1,0.2-0.5,0.6-0.5,0.7L192.2,69.3 M191,82.7c0.2,0,0.9-0.5,1.2-0.9L191,82.7z M192,75.7C192,75.7,192,75.7,192,75.7
					L192,75.7 M191.8,75.7c0,0,0.1,0,0.1-0.1L191.8,75.7 M191.8,74.6c0,0,0.1,0,0.1,0H191.8z M191.4,74.6c0,0,0.3,0,0.4,0
					L191.4,74.6L191.4,74.6z M191.7,75.8L191.7,75.8C191.7,75.8,191.7,75.8,191.7,75.8 M191.7,70L191.7,70
					C191.7,69.9,191.7,70,191.7,70 M191.6,70C191.6,70,191.7,70,191.6,70L191.6,70 M191.6,70C191.6,70,191.6,70,191.6,70L191.6,70
					 M191.5,70.1L191.5,70.1C191.6,70,191.6,70,191.5,70.1 M191.6,72.8c-0.1-0.1-0.1-0.1-0.2-0.2L191.6,72.8 M191.5,70.1L191.5,70.1
					L191.5,70.1 M191.6,72.8c-0.8,0.4-2,1.1-1.8,1.8L191.6,72.8 M191.4,74.6c-0.5,0.2-1,0.5-1.4,0.7L191.4,74.6 M191.2,72.5
					c0.1,0.1,0.1,0.1,0.2,0.2L191.2,72.5z M188.8,73.8c0.2-0.1,1.7-0.9,2.4-1.3L188.8,73.8 M190.8,75.8c0.2,0.1,0.7,0.1,0.7,0.1
					L190.8,75.8z M190.7,78.4c0,0-0.1,0.2-0.1,0.2L190.7,78.4 M189.3,78.5c0.4,0.3,0.7,0.4,1.3,0.1L189.3,78.5z M190.6,77.8
					c0,0-0.1-0.1-0.1-0.2L190.6,77.8z M190.4,77.3c0,0.1,0.1,0.2,0.2,0.3L190.4,77.3 M190.8,75.8c0,0-0.3-0.1-0.5-0.2L190.8,75.8z
					 M189.7,71.2c0.1,0,0.6-0.3,0.7-0.4L189.7,71.2 M190.2,82.2c0.2,0.3,0.5,0.5,0.7,0.4L190.2,82.2z M190,81.6
					c0.1,0.2,0.1,0.4,0.2,0.7L190,81.6z M190,75.3c0,0,0.2,0.2,0.4,0.3L190,75.3 M190,81.6c0-0.1-0.1-0.2-0.1-0.2L190,81.6z
					 M190.4,77.3c0,0-0.2-0.3-0.5-0.4L190.4,77.3 M188.8,78.9c0.1,1,1,2.2,1.1,2.5L188.8,78.9 M189.8,76.8c-0.3-0.1-0.6-0.3-0.6-0.3
					L189.8,76.8 M189.4,74.7c-0.3-0.2-1-0.6-1.1-0.6L189.4,74.7 M188.9,78.6c-0.1,0.1-0.1,0.2-0.2,0.3L188.9,78.6z M188.7,76.2
					c0.1,0,0.5,0.3,0.6,0.3L188.7,76.2z M188.6,76.2L188.6,76.2L188.6,76.2z M188.6,78.3c0.1-0.3-0.2-0.9-0.2-0.9L188.6,78.3z
					 M188.2,79.1c0,0,0.4-0.5,0.5-0.8L188.2,79.1z M188.2,72.3c0.1-0.1,0.2-0.3,0.2-0.3L188.2,72.3 M188.2,73.8c0,0,0.4,0.1,0.5,0
					L188.2,73.8z M188.3,74.1c-0.1-0.1-0.4-0.3-0.5-0.4L188.3,74.1 M187.8,79.3c0,0,0.2,0,0.3-0.2L187.8,79.3z M187.9,73.5
					c0.1-0.3,0.1-0.9,0.1-0.9L187.9,73.5z M188.4,77.3c-0.2-0.3-0.2-0.5-0.5-0.8L188.4,77.3z M187.9,76.6c-0.3-0.3-1.2-0.6-1.5-0.6
					L187.9,76.6 M187.9,73.5c0,0,0.3,0.3,0.4,0.3L187.9,73.5z M187.9,75.8c0.1,0.1,0.7,0.4,0.8,0.4L187.9,75.8z M187.8,73.7
					c-0.1-0.1-0.3-0.2-0.4-0.2L187.8,73.7 M186.6,79.9c0.1,0,0.9-0.3,1.3-0.6L186.6,79.9z M187.3,75.5c0.1,0.1,0.5,0.3,0.6,0.3
					L187.3,75.5z M186,74.7c0.1,0.1,0.4,0.2,0.5,0.2L186,74.7z M186.4,75.9c-0.1,0-0.2,0-0.2,0H186.4z M186,78.1c0.2,0,0.2,0,0.4,0
					H186 M185.9,72.5c0.2,0.1,0.3,0.2,0.4,0.2L185.9,72.5z M185.8,75.9c0.1,0.1,0.2,0,0.3,0L185.8,75.9L185.8,75.9z M186,74.7
					L186,74.7C186,74.7,186,74.7,186,74.7 M186,74.7c-0.1,0-0.7-0.2-0.8-0.2L186,74.7 M185.6,78c0,0,0.3,0.1,0.4,0.1L185.6,78
					 M185.9,72.6c-0.2-0.1-0.5-0.2-0.6-0.3L185.9,72.6 M185.5,79.1c0.4,0.7,1,0.8,1.1,0.8L185.5,79.1z M186.4,78.1
					c-0.2-0.4-0.9-0.9-0.9-0.9L186.4,78.1 M185.5,79.1c-0.1,0.1-0.7,0.9-0.7,0.9L185.5,79.1 M184.7,77.9c0.1,0,0.9,0,0.9,0
					L184.7,77.9z M185.2,76.6c0,0.3,0.3,0.6,0.3,0.6L185.2,76.6z M185.8,75.9c-0.5,0.3-0.6,0.4-0.6,0.7L185.8,75.9 M185.3,72.3
					c0,0-0.2-0.2-0.3-0.2L185.3,72.3 M184.9,82.7c0.1-0.5,0-0.8,0-0.8L184.9,82.7z M184.6,83.7c0.3-0.3,0.3-0.5,0.3-0.9L184.6,83.7z
					 M185.2,74.6c0,0-0.4-0.2-0.5-0.2L185.2,74.6 M184.8,80c-0.1,0.1-0.1,0.1-0.2,0.2L184.8,80 M184.7,74.3c0,0-0.1-0.1-0.1-0.1
					L184.7,74.3z M184.7,77.9c-0.2,0-0.5,0.2-0.8,0.3L184.7,77.9 M184.6,80.3c0,0.1,0.1,0.2,0.1,0.4L184.6,80.3 M184.5,81.1
					c0.1-0.1,0.1-0.3,0.2-0.4L184.5,81.1 M184.2,84c0.1-0.1,0.3-0.3,0.4-0.3L184.2,84z M184.4,71.4c0,0,0.2,0.2,0.3,0.2L184.4,71.4z
					 M184.1,73.9c0.1,0.1,0.4,0.3,0.5,0.4L184.1,73.9z M183.5,73.6c0.2,0.2,0.6,0.3,0.6,0.3L183.5,73.6z M183.5,70.4
					c0.2,0.3,0.3,0.6,0.5,0.9L183.5,70.4 M183.5,83.7c0.1,0.1,0.6,0.4,0.8,0.3L183.5,83.7z M183.5,73.6c-0.3,0-0.6,0.1-0.8,0.1
					L183.5,73.6 M183,70.2c0.1,0.1,0.5,0.2,0.5,0.2L183,70.2z M183.4,78.7c0,0-0.3,0.2-0.4,0.5L183.4,78.7 M182.2,78.9
					c0.1,0,0.6,0.3,0.9,0.3L182.2,78.9z M183,70.2c-0.4,0.1-0.9,0.5-1.4,0.8L183,70.2 M182.6,73.7c0,0-0.3-0.2-0.4-0.2L182.6,73.7
					 M182.3,81.8c0.3,0.7,1,1.7,1.1,1.8L182.3,81.8z M181.7,82c0.1,0,0.5-0.1,0.7-0.2L181.7,82 M181.7,82
					C181.7,82,181.7,82,181.7,82L181.7,82 M181.6,78.5L181.6,78.5L181.6,78.5 M181.4,71.4c0.1,0.5,0.2,1.4,0.6,1.9L181.4,71.4z
					 M181,78.2c0,0,0.4,0.2,0.5,0.3L181,78.2 M181.4,71.4c0.1-0.1,0.2-0.3,0.2-0.4L181.4,71.4z M191.9,72.1L191.9,72.1L191.9,72.1
					L191.9,72.1l0.7-0.6l0,0c0.1-0.1,0.6-0.2,0.6-0.2l0,0l0.2,0.2c0.1,0.2,0.1,0.2,0.1,0.4l-0.5,0.3l0,0l-0.1,0.1c0,0-0.1,0-0.1,0.1
					l-0.4,0.2L191.9,72.1 M191.5,75.9c-0.1,0-0.5,0-0.7-0.1l0,0l-0.5-0.2c-0.1-0.1-0.4-0.3-0.4-0.3l0,0c0.5-0.2,1-0.5,1.4-0.7h0.4
					l0.1,0l0,0c0.1,0,0.2,0,0.4,0c0.1,0,0.1,0,0.1,0l0.6,0.1l0.1,0.5c0,0-0.1,0-0.1,0.1c0,0,0,0-0.1,0c-0.1,0-0.1,0.1-0.2,0.1
					c-0.2,0.1-0.4,0.2-0.6,0.3c-0.1,0-0.2,0.1-0.2,0.1c0,0,0,0-0.1,0c0,0,0,0,0,0c0,0-0.1,0-0.1,0.1l0,0c0,0-0.1,0-0.1,0h0v0
					c0,0,0,0,0,0c0,0,0,0-0.1,0l0,0L191.5,75.9L191.5,75.9L191.5,75.9 M181.6,71c0,0.2-0.1,0.3-0.2,0.4l0.6,1.9l0.2,0.2l0,0
					c0.1,0,0.4,0.2,0.4,0.2l0,0c0.3-0.1,0.5-0.1,0.8-0.1l0.6,0.3l0.5,0.4l0,0c0.1,0,0.1,0.1,0.1,0.1c0.1,0,0.5,0.2,0.5,0.2l0,0
					c0.1,0,0.6,0.2,0.8,0.2c0,0,0,0,0,0h0l0.5,0.2l0.8,0.5l0.6,0.3l0,0l0.8,0.4h0l0.6,0.3l0,0l0,0c0.1,0,0.4,0.1,0.6,0.3
					c0.3,0.1,0.5,0.4,0.5,0.4l0,0l0.2,0.3l0,0c0,0.1,0.1,0.1,0.1,0.2l0.1,0.6l0,0l-0.1,0.2c-0.6,0.3-0.9,0.2-1.3-0.1l-0.4,0.1
					l-0.2,0.3l1.1,2.5c0,0.1,0.1,0.2,0.1,0.2l0.2,0.7l0.7,0.4l1.2-0.9l0.3-0.4l0.3-1.1c0-0.1,0-0.1,0-0.1l-0.3-1l0,0l0.5-0.3
					c0-0.1,0.5-0.6,0.8-0.8l0.4-0.6l-0.3-0.8c0.1-0.1,0.3-0.5,0.5-0.5l0.5-0.1c0.3,0.1,0.5,0,0.8,0.2c0.3,0.2,0.6,0.4,0.6,0.5l0,0
					c0,0,0,0,0,0c0,0.1,0.1,0.1,0.1,0.2c0,0,0.1,0.1,0.1,0.1c0.1,0.2,0.2,0.3,0.3,0.4c0,0,0,0,0,0l0.2,0.1l0,0l0.4,0.3l0.4-0.1l0,0
					l0.6-0.6l0.1-0.7l0,0c0,0,0,0,0,0v0c0,0,0,0,0,0l0,0c0,0,0,0,0,0l0,0c0,0,0,0,0,0l-0.1-0.2l0,0l-0.1-0.3c0,0,0,0,0-0.1v0
					c0,0,0,0,0,0l1.1-0.1l0.7-1.4c0-0.1,0-0.4,0-0.4c-0.1-0.2-0.1-0.5-0.1-0.6l0,0l-0.6-0.5l-0.8,0.1l-0.5,0.2h0l0,0l-0.8,0.1h0
					l-0.1,0h0h0h0l0,0h0l-0.5,0.2l-0.8,0l-1.1,0.1l-1.2-0.1l-0.6-0.2l0,0l-0.4-0.2l0.4-0.2l0.5-0.1h0.6l0.7,0l0,0
					c0.3,0,0.6,0,0.7,0.1l0.6-0.1l0.8-0.3l0.7-0.5l0.4-0.4l-0.1-1.3l-0.2-0.4c-0.1,0-0.4-0.2-0.5-0.2l-0.6,0.2h0l0,0l0,0l-0.7,0.4
					l-0.2-0.1c0,0,0,0,0,0l0.1-0.1L195,69v0l0,0v0h0l-0.2-0.3c0,0,0,0,0-0.1l0-0.1c0,0,0,0,0,0l-0.2-0.1l0,0c0,0-0.2-0.1-0.3-0.2
					l-2,1l0,0l0,0.1l-0.5,0.7h0c0,0,0,0-0.1,0c0,0,0,0,0,0c0,0,0,0-0.1,0c0,0,0,0,0,0c0,0,0,0,0,0c0,0,0,0,0,0l0,0l-1.1,0.7
					c-0.1,0.1-0.6,0.4-0.7,0.4l0,0l-0.7,0.4l-0.6,0.3l0,0c0,0-0.1,0.3-0.2,0.3l-0.2,0.3c0,0,0,0.6-0.1,0.9l0,0l0.4,0.3l0.5,0
					c0,0,0,0,0,0l2.4-1.3l0.2,0.2l0,0c0,0,0.1,0.1,0.2,0.2l0,0l-1.8,1.8l-0.3,0.2l-1.1-0.6l0,0l-0.5-0.4l0,0l-0.4-0.2l-1.2-0.8l0,0
					c0,0-0.2-0.1-0.4-0.2l-0.6-0.3l0,0l-0.3-0.2l-0.2-0.3l-0.2-0.1c-0.1,0-0.3-0.2-0.3-0.2l0,0l-0.4-0.2c-0.2-0.3-0.4-0.6-0.5-0.9
					l0,0v0c0,0-0.3-0.1-0.5-0.2L181.6,71 M180.4,81c0.4-0.1,0.8-0.2,1.3-0.5L180.4,81 M179.6,82.8c0.3,0,1.2-0.6,1.3-0.6L179.6,82.8
					z M181.7,80.5c-0.3-0.6-0.7-1.1-1.2-0.9L181.7,80.5z M180.5,81c-0.3,0.1-0.5,0.2-0.8,0.3L180.5,81 M180.5,79.5
					c-0.2,0-0.6,0.6-0.7,0.7L180.5,79.5z M180.2,78c-0.3,0.1-0.4,0-0.8,0.2L180.2,78 M179.3,80.8c0,0,0.2-0.2,0.4-0.4L179.3,80.8
					 M178.8,82.7c0.2,0,0.6,0.1,0.8,0.1L178.8,82.7z M179.3,80.8c0,0,0.2,0.4,0.4,0.5L179.3,80.8z M178.8,82.7c-0.1,0-0.1,0-0.2,0
					L178.8,82.7 M179.4,78.2c-0.4,0.1-0.9,0.5-0.9,0.5L179.4,78.2 M178.6,82.7c-0.1-0.1-0.4-0.1-0.5,0L178.6,82.7 M178.5,78.7
					c0,0-0.4,0.1-0.6,0.3L178.5,78.7 M178.1,82.6c0,0-0.4-0.2-0.5-0.2L178.1,82.6 M177.8,79.1c-0.2,0.2-0.2,0.3-0.3,0.4L177.8,79.1
					 M177.4,82.3c0,0,0.1,0.1,0.2,0.1L177.4,82.3 M177.4,79.6c0,0,0.1-0.1,0.1-0.1L177.4,79.6 M176.8,80.3c0,0,0.6-0.6,0.7-0.7
					L176.8,80.3z M177.4,82.3c-0.1-0.1-0.2-0.1-0.4-0.2L177.4,82.3z M176.5,80.9c-0.1,0.4,0.3,0.8,0.5,1.3L176.5,80.9 M176.7,80.4
					C176.7,80.4,176.8,80.3,176.7,80.4L176.7,80.4 M176.7,80.4c-0.1,0.1-0.1,0.2-0.2,0.5L176.7,80.4 M178.5,78.7L178.5,78.7
					l-0.6,0.3l-0.3,0.4c0,0.1-0.1,0.1-0.1,0.1c0,0.1-0.6,0.7-0.7,0.7l0,0c0,0,0,0.1,0,0.1l0,0l-0.2,0.5l0.5,1.3
					c0.1,0,0.2,0.1,0.4,0.2l0,0l0.2,0.1l0,0c0.1,0,0.5,0.2,0.5,0.2l0,0c0.1,0,0.4,0,0.5,0c0,0,0.1,0,0.2,0l0.8,0.1l1.3-0.6l0,0
					l0.3-0.1l0.6-0.1h0l0,0l0.7-0.2l1.1,1.8l0.8,0.3l0.4-0.3l0,0l0.3-0.9l0-0.8l-0.4-0.8l0.2-0.4c0-0.1-0.1-0.2-0.1-0.4
					c0.1-0.1,0.1-0.2,0.2-0.2l0,0c0-0.1,0.6-0.8,0.7-0.9l1.1,0.8l1.3-0.6l0.3-0.2l0,0l0.5-0.8l-0.2-0.9l0,0l-0.5-0.8l-1.5-0.6h-0.2
					c-0.1,0-0.2,0.1-0.3,0l-0.6,0.7l0.3,0.6l0,0c0,0,0.7,0.5,0.9,0.9c-0.2,0-0.2,0-0.4,0l0,0c0,0-0.3-0.1-0.4-0.1c0,0-0.9,0-0.9,0
					l-0.8,0.3l-0.6,0.4l0,0l-0.4,0.5c-0.3-0.1-0.8-0.3-0.9-0.3h0l-0.6-0.3l0,0l0,0c-0.1-0.1-0.5-0.3-0.5-0.3l-0.9-0.2l-0.8,0.2
					L178.5,78.7L178.5,78.7z M179.3,80.8L179.3,80.8l0.4-0.4l0.2-0.2l0,0c0,0,0.5-0.7,0.7-0.7l0,0.1c0.4-0.1,0.9,0.4,1.2,0.9
					c-0.5,0.3-0.9,0.4-1.3,0.5l-0.8,0.3l0,0C179.6,81.2,179.3,80.8,179.3,80.8L179.3,80.8L179.3,80.8z"/>
				<path class="st0" d="M132.2,24.3c-0.2-0.3,0-0.1-0.4-0.4C132,24.3,131.8,24.1,132.2,24.3 M127,23.7c0.2-0.4,0.4-0.3,0.6-0.9
					c-0.2-0.1-0.2-0.2-0.5-0.2c-0.2,0.2-0.3,0.3-0.5,0.6C126.7,23.4,126.7,23.5,127,23.7 M128.3,25.4c0,0,0,0,0.1,0
					c0.1,0,0.5-0.2,0.9-0.4c0.7-0.5,1.6-1.6,1.6-1.6c0-0.1,0.4-0.5,0.4-0.5c0.1-0.1,0.2-0.2,0.2-0.4c0-0.1-0.2-0.2-0.3-0.2
					c-0.2,0.1-1-0.1-1.4,0C129.6,23.6,128.8,24.1,128.3,25.4 M128.3,28c0.1-0.5,0.3-1.1,0.4-1.6c-0.3-0.1-0.6-0.1-0.8-0.2
					c-0.3,0.4-0.4,1.2-0.6,1.8C127.6,28,128,28,128.3,28 M124.2,25.1c-0.4-0.3-0.5-1.1-0.5-1.4c0-0.3,0-0.6,0-0.8
					c0-0.2,0.1-0.7,0.1-0.8c0.1-0.8,0.7-1.1,0.7-1.1s0.1-0.1,0.4-0.1c0.2,0,0.9,0.2,1.1,0.3c0.2,0.1,0.4,0.2,0.8,0.2
					c0,0,0.3,0,0.5-0.1c0.2-0.1,0.4-0.3,0.4-0.3s0.3-0.7,0.4-1c0.1-0.3,0.4-1.4,0.5-2.1c0.2-0.3,0.5-1.5,0.5-1.5
					c0.2-0.6,0.4-1.9,0.4-1.9c0.1-0.3,0.1-0.6,0.2-0.8c-0.1-0.1-0.2-0.2-0.2-0.3c0-0.4-0.2-0.8,0-1.2c0.1-0.4,0.5-0.8,0.8-0.9
					l1.4-0.1c0.4,0.1,0.9,0.2,1.2,0.4c0.3,0.2,0.3,0.3,0.4,0.4c0.1,0.1,0.7,0.9,0.7,1.2c0,0.3-0.1,0.6-0.1,0.9
					c-0.3,1.1-0.9,2.1-1.8,2.1c-0.1,0.2-0.4,0.4-0.4,0.4s-0.5,0.7-0.6,1c0,0-0.2,0.5-0.3,0.7c-0.6,1-0.5,1.5-0.8,2.7
					c0,0,0.4,0,0.7,0c0,0,0.9-0.3,1.2-0.5c0.3-0.2,0.8-1.1,0.9-1.3c0.1-0.2,0.1-0.4,0.3-0.6s0.3-0.3,0.5-0.5c0.1-0.2,0.3-0.7,0.4-1
					c0.1-0.3,0.2-1.6,0.3-2.2c0.1-0.6,0.4-1.3,0.4-1.4c0.2-1.1,0.7-2.2,1.5-2.4c0.2-0.1,1.2-0.2,1.6-0.1c0.4,0,0.9,0.2,1.1,0.4
					c0.3,0.1,0.9,0.8,1,1.1c0.1,0.4,0.2,0.7-0.1,1.1c-0.1,0.2-0.3,0.5-0.5,0.6c-0.2,0.1-0.6,0.1-0.6,0.2c-0.1,0-0.7,0.2-0.9,0.3
					c-0.2,0.1-0.7,0.6-0.7,0.6s-0.2,0.2-0.3,0.3c-0.3,0.5-0.7,1.2-0.8,1.6c-0.2,0.4-0.6,1.4-0.6,1.4s-0.2,0.4-0.4,0.6
					c0,0-0.4,0.8-0.6,1c-0.2,0.2-0.7,0.6-0.9,0.9c0.2,0,0.4,0,0.8,0s0.7,0.1,0.9,0.1c0.2,0.1,0.4,0.1,0.6,0.2
					c0.2,0.1,0.6,0.3,0.6,0.5s0.8,1.3,0.2,2c-0.5,0.7-1.1,1-1.3,1.1c-0.2,0.1-0.4,0.2-0.6,0.3c-0.2,0.1-1.3,0.1-1.5,0.2
					c-0.2,0-1,0-1.6-0.2c-0.2,0.1-0.3,0.3-0.3,0.3s-0.4,0.3-0.5,0.3c-0.4,0.4-0.5,1.4-0.6,2c0.1,0.1,0,0.1,0.1,0.1s0.6-0.1,1.4-0.1
					c1.1,0,2,0.9,2.3,1.6c0.3,0.7,0,1.9-0.2,2c-0.1,0.1-0.3,0.2-0.8,0.2c-0.6,0-0.8-0.1-1-0.2c-0.2,0-0.7-0.1-1-0.1
					c-0.5-0.1-1.5-0.3-1.4-0.4c-0.6-0.2-1.7-0.5-1.8-0.4c-0.2-0.1-1,0-1.3,0s-0.7,0-0.9,0c-0.1,0-1,0.2-1.2,0.3
					c-0.2,0.1-0.5,0.2-0.6,0.3c-0.1,0.1-0.2,0.1-0.4,0.1c-0.2,0-0.4-0.1-0.5-0.1c-0.1-0.1-0.2-0.1-0.4-0.3c-0.1-0.1-0.1-0.4-0.2-0.5
					c0,0.1,0,0,0,0c0,0,0,0,0,0c0,0,0-0.1-0.1-0.3c-0.1-0.5,0.5-1.7,0.6-1.8c0.1-0.1,0.5-0.3,0.7-0.4s0.4-0.1,0.4-0.1s0.1,0,0.3,0
					c0.2,0,0.7,0.2,1.1,0.1c0.2-0.1,0.3-0.8,0.4-1c0-0.2,0.2-1,0.3-1.3C125.6,25.4,124.4,25.2,124.2,25.1"/>
				<path class="st0" d="M175.4,34.5C175.4,34.5,175.4,34.5,175.4,34.5L175.4,34.5z M173.9,33l-0.3-0.1c0,0-0.3-0.1-0.7,0.2
					c-0.5,0.4-0.2,0.2-0.6,0.5c-0.3,0.4-0.2,0.3-0.5,0.7c-0.2,0.4-0.5,0.7-0.9,1.1c-0.3,0.4-0.2,0.3-0.7,0.8c-0.5,0.5-1,0.9-1,0.9
					l-0.4,0.4l-1,0.5l-0.6,0.3l-0.5,0.3l-0.3,0.2l-0.2,0.1l-0.3,0.2h-0.5l-0.6-0.1l-0.5-0.5l-0.2-0.2l-0.3-0.3l-0.4-0.3l-0.6-0.2
					l-0.4-0.2c0,0-0.4-0.1-0.6,0c-0.1,0-0.2,0.4-0.2,0.4l-0.1,1.2c0,0,0.2,0.5,0.2,0.7c0,0.1,0.2,0.6,0.2,0.6s0.2,0.3,0.2,0.5
					c0,0.1,0.1,0.4,0.1,0.4s0,0.3,0,0.5c0,0.1,0,0.3,0,0.4c-0.1,0.1-0.4,0.2-0.5,0.3c-0.1,0.1-0.5,0.4-0.5,0.4l-0.6,0.1l-0.8,0.3
					l-0.7,0.4l-0.6,0.2l-0.7,0.1l-0.8,0.2l-0.8,0.1l-0.6,0.1l-0.4,0.1l-0.8-0.1l-0.4-0.3l-0.5-0.5l-0.6-0.6l-0.4-0.2l-0.4,0.2
					l-0.3,0.6l-0.2,0.7l0,0.5l0.6,0.6l0.6,0.6l1,0.5l1.1,0.4l0.9,0l1,0.1l0.8-0.1l0.8-0.2l1.1-0.4l0.8-0.3l0.7-0.4l0.8-0.3l0.6-0.3
					c0,0,0.2,0.1,0.3,0.4c0.1,0.4-0.2,1.2-0.2,1.2l-0.3,1.1l-0.2,0.9l0,1.3v1l0.2,1.1l0.3,0.8l0.4,0.4l0.6,0.6l0.5,0.4l0.4,0.2
					l0.4,0.1L165,54l0.4,0.3l0.4,0.3h0.4l0.3,0.1l0.3,0.2h0.5l0.2-0.2l0.4,0.2l0.2-0.3l0.1-0.2l-0.3-0.3l-0.1-0.3l-0.3-0.3l-0.4-0.3
					l-0.4-0.4l-0.4-0.5l-0.8-0.8l-0.6-1.6c0,0-0.4-1.2-0.4-2.1c0.1-0.8,0-1.3-0.1-1.7c-0.1-0.1-0.2-0.4-0.3-0.5
					c-0.1-0.2,0-0.6,0.1-0.8c0.1-0.1,0.4-0.4,0.4-0.4s0.3-0.4,0.4-0.5c0.1-0.1,0-0.4,0.1-0.6c0.1-0.2,0.6-0.5,0.6-0.5l0.5-0.3
					l0.5-0.2l0.6-0.1l0.4,0.1l0.8,0.2c0,0,0.5,0.2,0.6,0.3c0.2,0.1,0.6,0.6,0.6,0.6l0.4,0.4c0,0,0.4,0.1,0.5,0.1
					c0.2,0,0.7-0.3,0.7-0.3s0.3-0.3,0.4-0.4c0.1-0.3,0-0.9-0.2-1.2c-0.1-0.1-0.4-0.4-0.4-0.4l-0.4-0.4l-0.5-0.5l-0.3-0.3l-0.2-0.2
					l-0.3-0.4c0,0,0.2-0.5,0.3-0.6c0.1-0.1,0.4-0.4,0.4-0.4s0.3-0.2,0.4-0.2c0.1-0.1,0.3-0.2,0.3-0.2l0.6-0.5c0,0,0.3-0.2,0.4-0.3
					c0.2-0.1,0.5-0.3,0.7-0.3c0.1,0,0.3-0.1,0.4-0.1c0.2-0.1,0.8-0.3,0.8-0.3l0.4-0.2l0.6-0.4l0.5-0.4l0.4-0.4c0,0,0.2-0.2,0.2-0.3
					c0-0.1-0.1-0.5-0.1-0.5l-0.2-0.3c0,0-0.2-0.2-0.3-0.4c-0.1-0.1-0.2-0.3-0.3-0.3c-0.1-0.1-0.3-0.3-0.3-0.3s-0.2-0.2-0.2-0.2
					C174.2,33.1,173.9,33,173.9,33L173.9,33z"/>
			</g>
			<path class="st0" d="M20.2,107.5c2-0.3,2.6-1,2.6-1.8c0-1.3-2.2-2.1-4.6-2.1c-3.1,0-5.1,1-5.1,2.1c0,1,0.9,1.5,2.8,2.1l-0.1,0.5
				c-1-0.1-2.4-0.4-3.1-0.6c-0.1-0.3-0.5-1.3-0.5-2c0-2.9,2.9-4.1,5.6-4.1c3.5,0,5.9,1.8,5.9,4.3c0,0.9-0.3,1.6-0.4,1.9
				c-0.9,0.1-1.7,0.1-2.9,0.2C20.3,108,20.2,107.5,20.2,107.5z M19.1,111.8l2-0.2c1.8-0.2,1.9-0.1,2.1,0.6l0.6-0.1l-0.3-3.5
				l-0.6,0.1c0,0.8-0.1,0.9-2,1.1l-5.5,0.5c-1.8,0.2-1.9,0.1-2.1-0.7l-0.6,0.1l0.3,3.5l0.7-0.1c0-0.7,0.1-0.8,1.9-1l2.5-0.2l0.2,2.3
				l-2.5,0.2c-1.8,0.2-1.9,0.1-2.1-0.7l-0.6,0.1l0.3,3.6l0.6-0.1c0-0.8,0.1-0.8,1.9-1l5.5-0.5c1.8-0.2,1.9-0.1,2.1,0.7l0.7-0.1
				l-0.3-3.5l-0.6,0.1c0,0.7-0.1,0.8-2,1l-1.9,0.2L19.1,111.8L19.1,111.8z M22.1,120.2c1.8-0.3,1.9-0.2,2.1,0.5l0.6-0.1l-0.6-3.5
				l-0.6,0.1c0,0.8-0.1,0.9-1.9,1.2l-5.5,1c-1.8,0.3-1.9,0.2-2.1-0.5l-0.6,0.1l0.6,3.5l0.6-0.1c0-0.8,0.1-0.9,1.9-1.2L22.1,120.2
				L22.1,120.2z M22.1,128.9c1.7-0.4,2.6-0.6,3.1-0.7c0.6-0.1,0.9,0.1,1,0.7l0.6-0.2l-0.7-2.7l-0.6,0.2c0.1,0.7,0,1.1-0.6,1.2
				c-0.5,0.2-1.4,0.4-3.1,0.9l-2.2,0.6v0l5.9-5.2l-0.6-2.3l-0.6,0.2c0,0.4,0,0.7-0.3,0.9c-0.4,0.3-0.6,0.4-1.8,0.7l-3,0.8
				c-1.7,0.4-2.6,0.6-3.1,0.7c-0.6,0.1-0.9-0.1-1-0.6l-0.6,0.2l0.7,2.6l0.6-0.2c-0.1-0.7,0-1.1,0.6-1.3c0.5-0.2,1.4-0.4,3.1-0.9
				l3-0.8v0l-6.7,5.9l0.2,0.9L22.1,128.9L22.1,128.9z M17.8,135.6l1.1,3.2l0.6-0.2c-0.1-0.5-0.1-0.7,1.2-1.6c1.5-1,3.2-2.1,4.9-3.2
				l2.8-1.8l-0.5-0.6l-8.9,0.8c-1.5,0.1-1.6,0-1.9-0.5l-0.6,0.2l0.8,2.4l0.6-0.2l-0.1-0.3c-0.1-0.5,0.1-0.6,0.8-0.7l1.6-0.2l0.6,1.7
				l-1.5,0.9c-0.5,0.3-0.7,0.4-0.9,0l-0.2-0.3L17.8,135.6L17.8,135.6z M24.6,132.5L24.6,132.5l-2.8,1.8l-0.5-1.3L24.6,132.5
				L24.6,132.5z M30.4,138.1l-0.6,0.3c0.2,0.7,0.2,0.9-1.4,1.7l-3.3,1.6c-1.8,0.9-2.7,1.6-3.1,2.5c-0.4,0.8-0.2,1.6,0.1,2.3
				c0.3,0.7,1.1,1.2,2.1,1.3c1.2,0.1,2.7-0.4,4-1.1l1.2-0.6c1.5-0.7,2.3-1.1,2.8-1.3c0.5-0.2,0.9-0.1,1.2,0.4l0.6-0.3l-1.2-2.5
				l-0.6,0.3c0.3,0.7,0.2,1-0.3,1.3c-0.5,0.3-1.3,0.7-2.7,1.4l-0.9,0.4c-2.5,1.2-4.1,1.3-4.6,0.4c-0.4-0.9,0.5-2,2.7-3l3.1-1.5
				c1.6-0.8,1.8-0.8,2.2-0.2l0.6-0.3L30.4,138.1L30.4,138.1z M33.3,153.2c1.5-0.9,2.3-1.4,2.8-1.6c0.5-0.3,0.9-0.1,1.2,0.3l0.6-0.4
				l-1.5-2.4l-0.6,0.4c0.3,0.6,0.3,1-0.2,1.4c-0.4,0.3-1.2,0.9-2.7,1.8l-1.9,1.2l0,0l4-6.8l-1.3-2.1l-0.6,0.3c0.2,0.4,0.2,0.7,0,1
				c-0.3,0.4-0.5,0.6-1.5,1.2l-2.6,1.6c-1.5,0.9-2.3,1.4-2.8,1.6c-0.5,0.3-0.9,0.1-1.2-0.2l-0.6,0.4l1.4,2.3l0.6-0.4
				c-0.3-0.6-0.3-1,0.2-1.4c0.4-0.3,1.2-0.8,2.7-1.8l2.6-1.6v0l-4.6,7.6l0.5,0.8L33.3,153.2L33.3,153.2z M37.7,155.8
				c1.5-1.1,1.6-1.1,2.1-0.5l0.5-0.4l-2.1-2.9l-0.5,0.4c0.4,0.7,0.3,0.8-1.2,1.9l-4.5,3.3c-1.5,1.1-1.6,1.1-2.1,0.5l-0.5,0.4
				l2.1,2.9l0.5-0.4c-0.4-0.7-0.3-0.8,1.2-1.9L37.7,155.8L37.7,155.8z M40.6,167.7c-1.3,1.3-1.4,1.3-2.1,0.8L38,169l4,3.9
				c0.4-0.2,1.8-1.3,2.4-1.9l-0.3-0.4c-0.7,0.5-1.3,0.8-1.6,0.8c-0.5,0.1-0.9-0.1-1.2-0.4c-0.2-0.2-0.4-0.4-0.4-0.6
				c0-0.2,0.2-0.6,0.9-1.2l1.9-1.9l0.4,0.4c0.7,0.7,0.6,0.8-0.3,1.9l0.3,0.4l2.8-2.8l-0.3-0.3c-1,0.8-1.1,0.9-1.7,0.2l-0.4-0.4
				l2.3-2.3c0.4-0.4,0.4-0.4,0.7-0.1l0.1,0.1c0.4,0.4,0.6,0.7,0.5,1.1c-0.1,0.3-0.3,0.7-0.8,1.4l0.4,0.3c0.8-0.9,1.7-1.9,1.9-2.1
				l-3.7-3.7l-0.5,0.5c0.5,0.6,0.4,0.7-0.8,2L40.6,167.7L40.6,167.7z M48.3,172.2l0.1,0.1c0.2,0.1,0.1,0.4,0,0.8
				c-0.4,0.9-0.8,1.9-1,2.6c-0.3,1-0.3,1.6,0.8,2.7l0.3,0.3l0.4-0.4c-0.1-0.3-0.1-0.6,0-0.9c0.1-0.4,0.3-1,0.5-1.9
				c0.2-0.8,0.7-1.9,0.9-2.4c0.9,0.1,2-0.1,2.9-1.3c0.6-0.8,0.9-1.6,0.8-2.2c0-0.6-0.4-1.1-1-1.6l-2.6-2.2l-0.4,0.5
				c0.5,0.6,0.5,0.7-0.7,2.1l-3.6,4.2c-1.2,1.4-1.3,1.4-2,1l-0.4,0.5l2.6,2.2l0.4-0.5c-0.5-0.6-0.5-0.7,0.7-2.1L48.3,172.2
				L48.3,172.2z M51.3,168.6c0.4-0.5,0.5-0.5,0.8-0.2c0.3,0.3,0.5,1.1-0.5,2.4c-0.5,0.6-1.2,1.1-1.9,1.2c-0.3,0.1-0.5-0.1-0.8-0.3
				l-0.1-0.1L51.3,168.6L51.3,168.6z M51.4,176.7c-0.5,1-1,1.8-1.3,2.5c0,0.1,0.2,0.4,0.3,0.7c0.2,0.3,0.4,0.7,0.8,0.9
				c1.4,1,3.1,0.4,4.3-1.3c1.1-1.6,0.9-2.8,0.5-4l-0.1-0.3c-0.3-0.8-0.3-1.4,0.1-2.1c0.5-0.7,1.2-1,1.6-0.6c0.7,0.5,0.3,1.7-0.1,2.8
				l0.5,0.2c0.6-1,1-1.7,1.3-2.3c-0.1-0.1-0.2-0.3-0.3-0.5c-0.2-0.3-0.4-0.6-0.7-0.7c-1.4-1-3-0.3-4.1,1.3c-1,1.5-0.7,2.8-0.4,3.8
				l0.1,0.2c0.3,0.8,0.3,1.5-0.3,2.3c-0.6,0.9-1.3,1.1-1.8,0.8c-0.9-0.6-0.3-2.5,0.1-3.4L51.4,176.7L51.4,176.7z M61.6,177.5
				c1-1.5,1.1-1.6,1.8-1.3l0.3-0.6l-3-1.9l-0.3,0.6c0.6,0.5,0.6,0.6-0.4,2.2l-2.9,4.7c-1,1.6-1.1,1.6-1.8,1.3l-0.3,0.6l3,1.9
				l0.3-0.6c-0.6-0.5-0.6-0.6,0.4-2.2L61.6,177.5L61.6,177.5z M67.6,178.8l0.2,0.1c0.5,0.2,0.7,0.5,0.8,0.9c0,0.3-0.1,0.8-0.4,1.8
				l0.4,0.2c0.5-1.1,1.2-2.4,1.5-3.1l-0.3-0.2c-0.3,0.2-0.4,0.3-0.7,0.1l-3.8-2.1c-0.3-0.1-0.3-0.2-0.3-0.6l-0.3-0.2
				c-0.4,0.8-1,1.8-1.7,3l0.4,0.2c0.6-0.8,0.9-1.1,1.1-1.2c0.3-0.2,0.7-0.2,1.3,0.1l0.2,0.1l-3.5,6.5c-0.8,1.6-1,1.7-1.8,1.3
				l-0.3,0.6l3.4,1.8l0.3-0.6c-0.8-0.5-0.8-0.7,0.1-2.3L67.6,178.8L67.6,178.8z M71.7,187c0.3-0.6,0.3-0.7,0.8-1.2
				c0.8-0.9,1.5-1.7,2.3-2.5c0.7-0.8,1-0.9,1.6-0.7l0.3-0.6l-2.4-1l-0.3,0.6l0.4,0.2c0.3,0.2,0.2,0.4-0.1,0.8
				c-0.8,1-1.8,2.3-2.3,2.8c0.1-1.3,0.2-2.3,0.3-3.7c0-0.4,0.1-0.6,0.3-0.5l0.4,0.1l0.3-0.6l-3.1-1.3l-0.3,0.6
				c0.4,0.3,0.5,0.4,0.4,1.6c-0.1,2.1-0.2,3.3-0.2,4.1c-0.1,0.4-0.1,0.5-0.3,1l-0.6,1.3c-0.7,1.7-0.8,1.8-1.7,1.5l-0.2,0.6l3.5,1.5
				l0.3-0.6c-0.8-0.5-0.8-0.6-0.1-2.3L71.7,187L71.7,187z M85.1,190.2c0.9-3.2,0.1-5.8-1.9-6.3c-2.5-0.7-4.5,2-5.3,4.6
				c-0.9,3-0.2,5.8,2,6.4C82,195.3,84.2,193.6,85.1,190.2 M80.1,188.4c0.8-2.8,1.9-4.1,2.7-3.8c0.9,0.2,1.1,2.3,0.2,5.5
				c-0.8,2.9-1.7,4.1-2.6,3.9C79.4,193.7,79.3,191.4,80.1,188.4 M89.7,187.2c0.1-0.6,0.1-0.6,0.3-0.6l0.5,0.1c0.6,0.1,0.9,0.3,1,0.6
				c0.1,0.3,0.2,0.8,0.1,1.6l0.5,0c0.2-1.3,0.4-2.5,0.4-2.8l-5.2-1l-0.1,0.6c0.7,0.2,0.8,0.4,0.4,2.2l-1.1,5.4
				c-0.3,1.8-0.5,1.9-1.2,1.9l-0.1,0.6l3.6,0.7L89,196c-0.9-0.3-0.9-0.4-0.6-2.2l0.4-2.3l0.7,0.1c0.9,0.2,0.9,0.3,0.8,1.6l0.5,0.1
				l0.7-3.7l-0.5-0.1c-0.3,1.1-0.4,1.2-1.3,1.1l-0.7-0.1L89.7,187.2L89.7,187.2z M102.2,187.2l-2.1,6.5l-1.5-6.8l-2.6-0.2l-0.1,0.6
				c0.8,0.2,0.9,0.4,0.7,2.5l-0.3,3.4c-0.2,1.5-0.3,2.4-0.4,2.9c-0.1,0.6-0.3,0.8-0.8,0.8l-0.1,0.6l2.7,0.2l0-0.7
				c-0.7-0.1-0.9-0.3-0.9-0.9c0-0.5,0-1.3,0.2-2.8l0.3-3.7h0l1.5,8l0.6,0.1l2.7-8.3h0.1l-0.4,5.9c-0.1,1.9-0.2,1.9-1,2l0,0.6
				l3.4,0.2l0-0.6c-0.8-0.2-0.8-0.2-0.7-2.1l0.3-5.6c0.1-1.8,0.1-1.8,1-1.9l0-0.7L102.2,187.2L102.2,187.2z M108.4,189.9
				c0-1.8,0.1-1.9,0.8-2v-0.7l-3.6,0.1v0.7c0.8,0.1,0.9,0.2,0.9,2l0.1,5.6c0,1.8-0.1,1.9-0.8,2.1l0,0.6l3.6-0.1l0-0.6
				c-0.8-0.1-0.8-0.2-0.9-2L108.4,189.9L108.4,189.9z M117,191.3c-0.2-1.8-0.2-2.7-0.2-3.2c0-0.6,0.3-0.9,0.8-0.9l-0.1-0.7l-2.8,0.3
				l0.1,0.7c0.7,0,1,0.2,1.2,0.8c0.1,0.5,0.2,1.4,0.4,3.2l0.2,2.2h0l-4.3-6.6l-2.4,0.2l0.1,0.7c0.4,0,0.7,0.1,0.9,0.4
				c0.3,0.4,0.3,0.7,0.4,1.9l0.3,3.1c0.2,1.8,0.2,2.7,0.2,3.2c0,0.6-0.3,0.8-0.7,0.9l0.1,0.6l2.7-0.2l-0.1-0.6c-0.7,0-1-0.2-1.2-0.8
				c-0.1-0.5-0.2-1.4-0.4-3.2l-0.3-3.1h0l4.8,7.5l0.9-0.1L117,191.3L117,191.3z M121.2,188.5c-0.3-1.8-0.2-1.9,0.5-2.1l-0.1-0.6
				l-3.5,0.6l0.1,0.6c0.8,0,0.9,0.1,1.2,1.9l0.9,5.5c0.3,1.8,0.2,1.9-0.5,2.2l0.1,0.6l3.5-0.6l-0.1-0.6c-0.8,0-0.9-0.1-1.2-1.9
				L121.2,188.5L121.2,188.5z M129.9,188.6c-0.4-1.7-0.6-2.6-0.7-3.1c-0.1-0.6,0.1-0.9,0.7-1.1l-0.2-0.6l-2.7,0.7l0.2,0.6
				c0.7-0.1,1,0,1.2,0.6c0.2,0.5,0.4,1.4,0.9,3.1l0.6,2.2h0l-5.2-5.9l-2.3,0.6l0.2,0.6c0.4-0.1,0.7,0,0.9,0.3
				c0.3,0.4,0.4,0.6,0.7,1.8l0.8,3c0.4,1.7,0.6,2.6,0.7,3.1c0.1,0.6-0.1,0.9-0.6,1.1l0.2,0.6l2.6-0.7l-0.2-0.6
				c-0.7,0.1-1.1,0-1.2-0.6c-0.2-0.5-0.4-1.4-0.9-3.1l-0.8-3h0l5.9,6.7l0.9-0.2L129.9,188.6L129.9,188.6z M137.4,184.5
				c-0.6-1.5-1-2.3-1.2-2.8c-0.4,0-1.3,0-2.1,0.3c-2.2,0.8-3.4,3.3-2.1,7c1.1,3.2,3.3,4.8,5.8,3.9c0.9-0.3,1.6-1,2.1-1.4
				c-0.2-0.4-0.4-0.9-0.6-1.4l-0.4-1.1c-0.4-1.1-0.4-1.2,0.1-1.5l-0.2-0.7l-3.4,1.2l0.2,0.7c1.1-0.3,1.2-0.2,1.6,0.9l0.5,1.5
				c0.3,0.8,0.1,0.9-0.1,1c-1.4,0.5-2.9-1.6-3.8-4c-1-2.7-0.6-4.7,0.4-5.1c0.7-0.2,1.7-0.1,2.7,1.9L137.4,184.5L137.4,184.5z
				 M147.7,188.3l3.1-1.5l-0.3-0.6c-0.5,0.1-0.7,0.2-1.7-1c-1.1-1.4-2.4-2.9-3.7-4.5l-2.1-2.5l-0.6,0.5l1.9,8.8
				c0.3,1.4,0.2,1.6-0.3,1.9l0.3,0.6l2.3-1.1l-0.3-0.6l-0.3,0.1c-0.5,0.1-0.6,0-0.8-0.7l-0.4-1.6l1.6-0.8l1.1,1.4
				c0.4,0.5,0.4,0.6,0.1,0.9l-0.3,0.2L147.7,188.3L147.7,188.3z M143.7,181.9L143.7,181.9l2.1,2.6l-1.3,0.6L143.7,181.9L143.7,181.9
				z M154.2,177.5c-0.9-1.5-1.4-2.3-1.6-2.8c-0.3-0.5-0.1-0.9,0.3-1.2l-0.4-0.6l-2.4,1.5l0.3,0.6c0.6-0.3,1-0.3,1.4,0.2
				c0.3,0.4,0.8,1.2,1.8,2.7l1.2,1.9h0l-6.8-4L146,177l0.3,0.6c0.4-0.2,0.6-0.2,1,0c0.4,0.3,0.6,0.5,1.2,1.5l1.6,2.6
				c0.9,1.5,1.4,2.3,1.6,2.8c0.3,0.5,0.1,0.9-0.2,1.2l0.4,0.6l2.3-1.4l-0.3-0.6c-0.6,0.3-1,0.3-1.4-0.2c-0.3-0.4-0.8-1.2-1.8-2.7
				l-1.6-2.6h0l7.6,4.6l0.8-0.5L154.2,177.5L154.2,177.5z M152.9,172.7l0.4,0.5c0.6-0.4,0.8-0.3,1.9,1.1l3.4,4.4
				c1.1,1.4,1.1,1.6,0.5,2.1l0.4,0.5l2.2-1.7c2-1.5,2.6-4.2,0.1-7.6c-0.9-1.1-2-1.9-2.8-2.2c-1.2-0.4-2.4-0.1-3.4,0.7L152.9,172.7
				L152.9,172.7z M156.1,172.5c-0.2-0.3-0.5-0.6-0.4-0.7c0-0.1,0.1-0.2,0.3-0.4c0.7-0.6,2.3-0.5,4.5,2.4c1.8,2.4,2,4.2,1.3,4.8
				c-0.4,0.3-0.8,0.2-1.7-1L156.1,172.5L156.1,172.5z M164.9,163.8l0.2-0.2c0.4-0.4,0.7-0.5,1.1-0.5c0.3,0.1,0.7,0.3,1.5,0.9
				l0.3-0.4c-0.9-0.9-1.9-1.8-2.4-2.3l-0.2,0.2c0.1,0.4,0.1,0.5-0.1,0.7l-3.1,3c-0.2,0.2-0.3,0.3-0.7,0.1l-0.2,0.2
				c0.6,0.6,1.4,1.5,2.3,2.6l0.3-0.3c-0.6-0.8-0.8-1.2-0.9-1.5c-0.1-0.4,0-0.7,0.5-1.2l0.1-0.1l5.1,5.3c1.3,1.3,1.3,1.4,0.7,2.1
				l0.5,0.5l2.7-2.7l-0.4-0.5c-0.7,0.6-0.9,0.5-2.1-0.8L164.9,163.8L164.9,163.8z M173.1,165.9c1.4,1.2,1.4,1.3,0.9,2.1l0.5,0.4
				l3.7-4.2c-0.3-0.4-1.4-1.7-2-2.3l-0.4,0.3c0.5,0.6,0.9,1.2,1,1.5c0.1,0.5-0.1,0.9-0.4,1.2c-0.2,0.2-0.4,0.4-0.6,0.5
				c-0.2,0.1-0.6-0.2-1.2-0.8l-2.1-1.8l0.4-0.4c0.6-0.7,0.7-0.7,1.9,0.2l0.3-0.4l-3-2.6l-0.3,0.4c0.9,0.9,0.9,1,0.3,1.7l-0.4,0.4
				l-2.4-2.1c-0.4-0.4-0.4-0.4-0.1-0.7l0.1-0.1c0.4-0.4,0.7-0.6,1-0.6c0.3,0.1,0.8,0.3,1.4,0.7l0.3-0.4c-1-0.8-1.9-1.6-2.2-1.7
				l-3.4,3.9l0.5,0.4c0.6-0.5,0.7-0.5,2.1,0.7L173.1,165.9L173.1,165.9z M176.8,153c-1.1-0.7-1.7-1.1-2.5-1.6
				c-0.3,0.2-1,0.6-1.5,1.3c-1.5,2-0.6,4.9,2.2,6.9c2.2,1.6,5.2,2.4,6.9,0c0.4-0.6,0.7-1.6,0.8-1.9c-0.4-0.5-1.4-1.6-2.1-2.3
				l-0.4,0.3c1.2,1.6,1.6,2.6,1,3.3c-0.7,0.9-2.9,0.5-5.3-1.3c-1.9-1.4-3.2-3.4-2.4-4.4c0.5-0.6,1.3-0.9,3.2,0.1L176.8,153
				L176.8,153z M180,150.7l-1.7-1c-1.6-0.9-1.6-1.1-1.4-1.7l-0.6-0.3l-1.8,3l0.6,0.3c0.5-0.6,0.6-0.6,2.2,0.3l4.8,2.9
				c1.6,0.9,1.6,1.1,1.3,1.8l0.6,0.4l1.8-3l-0.6-0.3c-0.4,0.6-0.6,0.6-2.2-0.4l-2.2-1.3l1.2-1.9l2.2,1.3c1.6,0.9,1.6,1.1,1.3,1.8
				l0.6,0.4l1.9-3.1l-0.6-0.4c-0.5,0.6-0.6,0.6-2.2-0.3l-4.8-2.9c-1.6-0.9-1.6-1.1-1.3-1.8l-0.6-0.3l-1.8,3l0.6,0.3
				c0.4-0.5,0.6-0.6,2.1,0.4l1.7,1L180,150.7L180,150.7z M186,139.7c-1.6-0.8-2.4-1.2-2.9-1.5c-0.5-0.3-0.6-0.6-0.4-1.2l-0.6-0.3
				l-1.2,2.5l0.6,0.3c0.4-0.6,0.7-0.8,1.2-0.6c0.5,0.2,1.3,0.6,2.9,1.3l2,1v0l-7.9,0.3l-1,2.2l0.6,0.3c0.2-0.3,0.4-0.5,0.8-0.5
				c0.5,0,0.7,0.1,1.9,0.6l2.8,1.4c1.6,0.8,2.4,1.2,2.9,1.5c0.5,0.3,0.6,0.7,0.4,1.1l0.6,0.3l1.2-2.4l-0.6-0.3
				c-0.4,0.6-0.7,0.8-1.2,0.6c-0.5-0.2-1.4-0.6-2.9-1.3l-2.8-1.3v0l8.9-0.2l0.4-0.9L186,139.7L186,139.7z M189.8,131.3
				c-3.1-1.1-5.8-0.5-6.5,1.4c-0.9,2.4,1.7,4.6,4.2,5.6c2.9,1.1,5.7,0.6,6.5-1.5C194.8,134.8,193.2,132.6,189.8,131.3 M187.7,136.2
				c-2.8-1-3.9-2.2-3.6-3c0.3-0.9,2.3-1,5.5,0.2c2.9,1.1,4,2,3.7,2.9C192.9,137.3,190.6,137.3,187.7,136.2 M188.3,126.9
				c-1.8-0.5-1.8-0.6-1.7-1.4l-0.6-0.2l-0.9,3.4l0.6,0.2c0.3-0.7,0.4-0.7,2.2-0.2l5.4,1.4c1.8,0.5,1.9,0.6,1.7,1.4l0.6,0.2l1.4-5.2
				c-0.5-0.2-2.1-0.9-2.7-1.1l-0.2,0.4c0.8,0.4,1.2,0.7,1.5,1c0.4,0.3,0.3,0.8,0.2,1.1c-0.1,0.3-0.2,0.6-0.4,0.7
				c-0.2,0.2-0.6,0.1-1.4-0.2L188.3,126.9L188.3,126.9z M193.1,116.8c-3.3-0.6-5.8,0.5-6.1,2.5c-0.5,2.6,2.4,4.3,5.1,4.8
				c3.1,0.6,5.7-0.4,6.1-2.6C198.6,119.4,196.6,117.5,193.1,116.8 M191.9,122c-2.9-0.5-4.2-1.5-4.1-2.3c0.2-0.9,2.1-1.4,5.5-0.8
				c3,0.5,4.3,1.3,4.1,2.2C197.2,122.2,194.9,122.5,191.9,122 M191.7,108.7c-1.6-0.1-2.5-0.1-3.1-0.1c-0.2,0.4-0.5,1.2-0.6,2
				c-0.2,2.3,1.6,4.5,5.5,4.8c3.4,0.3,5.7-1.1,5.9-3.7c0.1-0.9-0.2-1.8-0.5-2.5c-0.4,0-0.9,0-1.5-0.1l-1.2-0.1
				c-1.2-0.1-1.2-0.2-1.3-0.7l-0.8-0.1l-0.3,3.6l0.8,0.1c0.2-1.1,0.4-1.2,1.5-1.1l1.6,0.1c0.8,0.1,0.9,0.2,0.9,0.5
				c-0.1,1.5-2.6,2-5.2,1.8c-2.9-0.2-4.6-1.3-4.4-2.5c0.1-0.7,0.6-1.6,2.8-1.7L191.7,108.7L191.7,108.7z M195.1,103.3
				c-0.7,0-0.8,0-1.4-0.2c-1.2-0.4-2.1-0.7-3.2-1.1c-1-0.4-1.2-0.6-1.3-1.2h-0.7l0,2.6h0.6l0.1-0.5c0-0.4,0.3-0.4,0.7-0.2
				c1.2,0.3,2.8,0.8,3.4,1c-1.2,0.4-2.2,0.7-3.5,1.2c-0.4,0.1-0.5,0.2-0.6-0.1l-0.1-0.4h-0.6l0,3.4h0.7c0.1-0.5,0.2-0.6,1.2-1
				c2-0.8,3.1-1.2,3.8-1.4c0.4-0.1,0.5-0.1,1.1-0.1h1.4c1.8,0,1.9,0.1,2.1,0.9h0.7l0-3.8h-0.6c-0.1,0.9-0.2,1-2,1L195.1,103.3
				L195.1,103.3z M34.8,165.4c3.1-1.6,7.7-3.7,7.9-3.9c1.4-0.7,1.6-0.6,2.1-0.2l0.5-0.4l-1.7-2l-0.5,0.4l0.2,0.3
				c0.2,0.4,0.2,0.6-0.8,1.1c-0.7,0.4-3.5,1.9-4.8,2.5c1-1.4,2.9-4.1,3.5-4.9c0.4-0.5,0.5-0.6,0.8-0.3l0.3,0.2l0.5-0.4l-2.2-2.6
				l-0.5,0.4c0.3,0.5,0.3,0.7-0.5,1.9c-0.9,1.3-3.4,4.7-5.2,7.2L34.8,165.4L34.8,165.4z"/>
		</g>
	</g>
</g>
</svg>
